<svg width="18" height="18" viewBox="0 0 18 18" fill="none" xmlns="http://www.w3.org/2000/svg">
<path id="Vector" d="M18 9C18 10.78 17.4722 12.5201 16.4832 14.0001C15.4943 15.4802 14.0887 16.6337 12.4442 17.3149C10.7996 17.9961 8.99002 18.1743 7.24419 17.8271C5.49836 17.4798 3.89471 16.6226 2.63604 15.364C1.37737 14.1053 0.520203 12.5016 0.172936 10.7558C-0.17433 9.00998 0.00389957 7.20038 0.685088 5.55585C1.36628 3.91131 2.51983 2.50571 3.99987 1.51677C5.47991 0.527841 7.21997 0 9 0C11.3862 0.00258081 13.6738 0.951621 15.3611 2.63889C17.0484 4.32616 17.9974 6.61384 18 9ZM9.75 10.6927C9.74059 10.4318 9.80011 10.1729 9.92255 9.94222C10.045 9.71154 10.2261 9.5172 10.4475 9.37875C10.911 9.12345 11.2986 8.75011 11.5712 8.29662C11.8438 7.84312 11.9916 7.32559 11.9997 6.79653C12.0077 6.26747 11.8756 5.7457 11.6169 5.28415C11.3582 4.8226 10.982 4.43769 10.5265 4.16846C10.071 3.89922 9.55237 3.75526 9.02327 3.75115C8.49417 3.74705 7.97339 3.88296 7.51376 4.14509C7.05414 4.40722 6.67202 4.78625 6.40617 5.24374C6.14032 5.70122 6.00019 6.22088 6 6.75H7.5C7.49981 6.52933 7.54831 6.31134 7.64205 6.11157C7.73578 5.9118 7.87243 5.73517 8.04227 5.59427C8.2121 5.45338 8.41093 5.35169 8.62457 5.29646C8.83821 5.24123 9.06141 5.23382 9.27825 5.27475C9.57453 5.33226 9.84694 5.47679 10.0607 5.68987C10.2744 5.90294 10.4198 6.1749 10.4783 6.471C10.5373 6.7818 10.4965 7.10331 10.3618 7.38955C10.2271 7.6758 10.0054 7.91213 9.72825 8.06475C9.26938 8.3306 8.89019 8.71463 8.6302 9.17685C8.3702 9.63906 8.23891 10.1625 8.25 10.6927V11.25H9.75V10.6927ZM9.75 12.75H8.25V14.25H9.75V12.75Z" fill="#D1DBFF"/>
</svg>
