<svg width="25" height="25" viewBox="0 0 25 25" fill="none" xmlns="http://www.w3.org/2000/svg">
<g id="close 1">
<path id="Vector" d="M1.79286 23.207C1.86541 23.2797 1.95158 23.3373 2.04642 23.3766C2.14126 23.4159 2.24292 23.4362 2.34559 23.4362C2.44826 23.4362 2.54992 23.4159 2.64476 23.3766C2.7396 23.3373 2.82577 23.2797 2.89832 23.207L12.4999 13.6055L22.1054 23.207C22.2519 23.3536 22.4508 23.436 22.6581 23.436C22.8654 23.436 23.0642 23.3536 23.2108 23.207C23.3574 23.0604 23.4398 22.8616 23.4398 22.6543C23.4398 22.447 23.3574 22.2482 23.2108 22.1016L13.6054 12.5L23.2069 2.89454C23.3535 2.74794 23.4359 2.54912 23.4359 2.3418C23.4359 2.13449 23.3535 1.93566 23.2069 1.78907C23.0603 1.64248 22.8615 1.56012 22.6542 1.56012C22.4469 1.56012 22.248 1.64248 22.1014 1.78907L12.4999 11.3945L2.89442 1.79298C2.74496 1.66499 2.55272 1.59811 2.3561 1.6057C2.15947 1.6133 1.97296 1.69481 1.83382 1.83394C1.69469 1.97308 1.61318 2.15959 1.60558 2.35622C1.59799 2.55284 1.66487 2.74508 1.79286 2.89454L11.3944 12.5L1.79286 22.1055C1.64735 22.2519 1.56567 22.4499 1.56567 22.6563C1.56567 22.8627 1.64735 23.0607 1.79286 23.207Z" fill="black" fill-opacity="0.4"/>
</g>
</svg>
