<svg width="54" height="54" viewBox="0 0 54 54" fill="none" xmlns="http://www.w3.org/2000/svg">
<circle cx="27" cy="27" r="26.5" stroke="white"/>
<path d="M18.4337 35.5656C18.4917 35.6237 18.5607 35.6698 18.6365 35.7012C18.7124 35.7327 18.7938 35.7489 18.8759 35.7489C18.958 35.7489 19.0393 35.7327 19.1152 35.7012C19.1911 35.6698 19.26 35.6237 19.3181 35.5656L26.9993 27.8843L34.6837 35.5656C34.801 35.6829 34.96 35.7487 35.1259 35.7487C35.2917 35.7487 35.4508 35.6829 35.5681 35.5656C35.6853 35.4483 35.7512 35.2892 35.7512 35.1234C35.7512 34.9575 35.6853 34.7985 35.5681 34.6812L27.8837 27L35.5649 19.3156C35.6822 19.1983 35.7481 19.0392 35.7481 18.8734C35.7481 18.7075 35.6822 18.5485 35.5649 18.4312C35.4477 18.3139 35.2886 18.248 35.1228 18.248C34.9569 18.248 34.7978 18.3139 34.6806 18.4312L26.9993 26.1156L19.3149 18.4343C19.1954 18.3319 19.0416 18.2784 18.8843 18.2845C18.727 18.2906 18.5778 18.3558 18.4665 18.4671C18.3552 18.5784 18.29 18.7276 18.2839 18.8849C18.2778 19.0422 18.3313 19.196 18.4337 19.3156L26.1149 27L18.4337 34.6843C18.3173 34.8014 18.252 34.9598 18.252 35.125C18.252 35.2901 18.3173 35.4485 18.4337 35.5656Z" fill="white"/>
</svg>
