<svg width="32" height="32" viewBox="0 0 32 32" fill="none" xmlns="http://www.w3.org/2000/svg">
<circle cx="16" cy="16" r="16" fill="#F1F3F9"/>
<g clip-path="url(#clip0_59_1048)">
<path d="M21.2501 11.3333H19.4417C19.3064 10.675 18.9481 10.0835 18.4275 9.65842C17.9068 9.23339 17.2555 9.00085 16.5834 9H15.4167C14.7446 9.00085 14.0934 9.23339 13.5727 9.65842C13.052 10.0835 12.6938 10.675 12.5584 11.3333H10.7501C10.5954 11.3333 10.447 11.3948 10.3376 11.5042C10.2282 11.6136 10.1667 11.762 10.1667 11.9167C10.1667 12.0714 10.2282 12.2197 10.3376 12.3291C10.447 12.4385 10.5954 12.5 10.7501 12.5H11.3334V20.0833C11.3343 20.8566 11.6419 21.5979 12.1887 22.1447C12.7355 22.6915 13.4768 22.9991 14.2501 23H17.7501C18.5233 22.9991 19.2647 22.6915 19.8115 22.1447C20.3582 21.5979 20.6658 20.8566 20.6667 20.0833V12.5H21.2501C21.4048 12.5 21.5532 12.4385 21.6626 12.3291C21.772 12.2197 21.8334 12.0714 21.8334 11.9167C21.8334 11.762 21.772 11.6136 21.6626 11.5042C21.5532 11.3948 21.4048 11.3333 21.2501 11.3333ZM15.4167 10.1667H16.5834C16.9452 10.1671 17.2981 10.2795 17.5935 10.4883C17.889 10.6972 18.1126 10.9924 18.2337 11.3333H13.7665C13.8876 10.9924 14.1112 10.6972 14.4066 10.4883C14.7021 10.2795 15.0549 10.1671 15.4167 10.1667ZM19.5001 20.0833C19.5001 20.5475 19.3157 20.9926 18.9875 21.3208C18.6593 21.649 18.2142 21.8333 17.7501 21.8333H14.2501C13.786 21.8333 13.3408 21.649 13.0126 21.3208C12.6845 20.9926 12.5001 20.5475 12.5001 20.0833V12.5H19.5001V20.0833Z" fill="black" fill-opacity="0.7"/>
<path d="M14.8333 19.5C14.988 19.5 15.1364 19.4385 15.2458 19.3291C15.3552 19.2197 15.4167 19.0714 15.4167 18.9167V15.4167C15.4167 15.262 15.3552 15.1136 15.2458 15.0042C15.1364 14.8948 14.988 14.8333 14.8333 14.8333C14.6786 14.8333 14.5303 14.8948 14.4209 15.0042C14.3115 15.1136 14.25 15.262 14.25 15.4167V18.9167C14.25 19.0714 14.3115 19.2197 14.4209 19.3291C14.5303 19.4385 14.6786 19.5 14.8333 19.5Z" fill="black" fill-opacity="0.7"/>
<path d="M17.1666 19.5C17.3213 19.5 17.4697 19.4385 17.5791 19.3291C17.6885 19.2197 17.7499 19.0714 17.7499 18.9167V15.4167C17.7499 15.262 17.6885 15.1136 17.5791 15.0042C17.4697 14.8948 17.3213 14.8333 17.1666 14.8333C17.0119 14.8333 16.8635 14.8948 16.7541 15.0042C16.6447 15.1136 16.5833 15.262 16.5833 15.4167V18.9167C16.5833 19.0714 16.6447 19.2197 16.7541 19.3291C16.8635 19.4385 17.0119 19.5 17.1666 19.5Z" fill="black" fill-opacity="0.7"/>
</g>
<defs>
<clipPath id="clip0_59_1048">
<rect width="14" height="14" fill="white" transform="translate(9 9)"/>
</clipPath>
</defs>
</svg>
