<svg width="14" height="14" viewBox="0 0 14 14" fill="none" xmlns="http://www.w3.org/2000/svg">
<g id="download 1" clip-path="url(#clip0_59_1429)">
<g id="Group">
<path id="Vector" d="M5.76213 10.5712C6.44535 11.2548 7.55337 11.2552 8.23702 10.572C8.23729 10.5717 8.23754 10.5715 8.23781 10.5712L10.1109 8.6981C10.327 8.45914 10.3084 8.09025 10.0694 7.87418C9.84694 7.67301 9.50815 7.67337 9.28606 7.875L7.57924 9.58243L7.58331 0.583352C7.58328 0.26116 7.32212 0 6.99996 0C6.67779 0 6.41663 0.26116 6.41663 0.583324L6.41138 9.57132L4.71388 7.875C4.48595 7.64723 4.11653 7.64736 3.88876 7.8753C3.66099 8.10324 3.66112 8.47265 3.88906 8.70043L5.76213 10.5712Z" fill="white"/>
<path id="Vector_2" d="M13.4167 9.33337C13.0945 9.33337 12.8334 9.59453 12.8334 9.9167V12.25C12.8334 12.5722 12.5722 12.8334 12.25 12.8334H1.75C1.42784 12.8334 1.16668 12.5722 1.16668 12.25V9.91673C1.16668 9.59456 0.905516 9.3334 0.583352 9.3334C0.26116 9.33337 0 9.59456 0 9.91673V12.25C0 13.2165 0.783508 14 1.75 14H12.25C13.2165 14 14 13.2165 14 12.25V9.91673C14 9.59456 13.7388 9.33337 13.4167 9.33337Z" fill="white"/>
</g>
</g>
<defs>
<clipPath id="clip0_59_1429">
<rect width="14" height="14" fill="white"/>
</clipPath>
</defs>
</svg>
