<svg
        xmlns="http://www.w3.org/2000/svg"
        width="14"
        height="14"
        viewBox="0 0 14 14"
        fill="none"
>
    <path
            d="M13.9044 5.12985C13.7851 4.75004 13.5467 4.41871 13.2245 4.18487C12.9023 3.95102 12.5135 3.82707 12.1154 3.83135H9.56678L8.7927 1.41868C8.67097 1.03891 8.43177 0.707605 8.10959 0.472552C7.78742 0.237499 7.39892 0.11084 7.00011 0.11084C6.60131 0.11084 6.2128 0.237499 5.89063 0.472552C5.56846 0.707605 5.32926 1.03891 5.20753 1.41868L4.43345 3.83135H1.88486C1.48805 3.83191 1.10156 3.95786 0.780601 4.19121C0.459644 4.42455 0.220636 4.75336 0.0977167 5.13066C-0.0252029 5.50796 -0.025747 5.91445 0.0961622 6.29207C0.218071 6.6697 0.456198 6.99914 0.776529 7.23335L2.85086 8.75001L2.0622 11.1924C1.93474 11.5712 1.93313 11.9811 2.05759 12.3609C2.18206 12.7407 2.42593 13.0701 2.75286 13.3C3.07419 13.5373 3.46359 13.6644 3.86304 13.6624C4.26248 13.6604 4.65059 13.5294 4.96953 13.2889L7.00011 11.7944L9.03128 13.2872C9.35203 13.5231 9.73933 13.6513 10.1375 13.6532C10.5357 13.6551 10.9242 13.5308 11.2472 13.298C11.5703 13.0652 11.8112 12.736 11.9353 12.3576C12.0594 11.9793 12.0604 11.5713 11.938 11.1924L11.1494 8.75001L13.226 7.23335C13.55 7.00208 13.7909 6.67265 13.9131 6.2938C14.0353 5.91495 14.0323 5.50683 13.9044 5.12985ZM12.5377 6.29126L10.1204 8.05818C10.0211 8.13061 9.9472 8.23255 9.90928 8.34946C9.87136 8.46636 9.87133 8.59226 9.90919 8.70918L10.8279 11.55C10.8744 11.6941 10.874 11.8492 10.8268 11.9931C10.7796 12.1369 10.688 12.2621 10.5651 12.3506C10.4423 12.4391 10.2945 12.4863 10.1431 12.4855C9.99172 12.4848 9.84447 12.436 9.72253 12.3463L7.34545 10.5963C7.24533 10.5227 7.12434 10.4831 7.00011 10.4831C6.87588 10.4831 6.7549 10.5227 6.65478 10.5963L4.2777 12.3463C4.15583 12.4372 4.00816 12.487 3.8561 12.4884C3.70404 12.4897 3.55549 12.4427 3.432 12.3539C3.3085 12.2652 3.21647 12.1395 3.16924 11.9949C3.12202 11.8504 3.12206 11.6945 3.16936 11.55L4.09103 8.70918C4.1289 8.59226 4.12887 8.46636 4.09095 8.34946C4.05303 8.23255 3.97915 8.13061 3.87986 8.05818L1.46253 6.29126C1.34079 6.20213 1.25033 6.0768 1.20408 5.93318C1.15782 5.78956 1.15814 5.635 1.20498 5.49157C1.25182 5.34814 1.34278 5.22318 1.46489 5.13454C1.58699 5.04591 1.73398 4.99812 1.88486 4.99801H4.85986C4.98336 4.99801 5.10368 4.95881 5.20347 4.88606C5.30327 4.81331 5.3774 4.71076 5.4152 4.59318L6.31936 1.7751C6.36577 1.63089 6.45674 1.50513 6.57918 1.41591C6.70162 1.32669 6.8492 1.27863 7.0007 1.27863C7.15219 1.27863 7.29977 1.32669 7.42221 1.41591C7.54465 1.50513 7.63562 1.63089 7.68203 1.7751L8.58619 4.59318C8.62399 4.71076 8.69812 4.81331 8.79792 4.88606C8.89772 4.95881 9.01803 4.99801 9.14153 4.99801H12.1165C12.2674 4.99812 12.4144 5.04591 12.5365 5.13454C12.6586 5.22318 12.7496 5.34814 12.7964 5.49157C12.8433 5.635 12.8436 5.78956 12.7973 5.93318C12.7511 6.0768 12.6606 6.20213 12.5389 6.29126H12.5377Z"
            fill="white"
    />
</svg>