<svg width="119" height="24" viewBox="0 0 119 24" fill="none" xmlns="http://www.w3.org/2000/svg">
<path d="M1.694 10.196L1.12 8.796C3.528 8.642 4.816 7.914 5.208 7.144H1.666V5.702H11.2V7.144H7.658C8.036 7.928 9.31 8.628 11.732 8.796L11.172 10.196C8.792 10.028 7.196 9.272 6.44 8.208C5.67 9.272 4.06 10.028 1.694 10.196ZM3.78 15.992V16.734H11.172V18.106H1.946V14.732H9.016V14.032H1.932V12.688H10.836V15.992H3.78ZM0.602 10.546H12.25V11.988H0.602V10.546ZM22.4129 5.31H24.2609V18.19H22.4129V13.612H19.3749V12.128H22.4129V10.084H19.5709C18.8709 12.464 17.2749 14.48 14.2929 15.978L13.3409 14.55C16.3649 12.968 17.8489 10.952 18.1429 8.11H13.9569V6.64H20.0189C20.0189 7.312 19.9769 7.956 19.8929 8.6H22.4129V5.31ZM34.0738 11.05L33.2478 12.478C31.7778 12.086 30.7838 11.302 30.1958 10.294C29.6218 11.414 28.5998 12.296 27.1158 12.702L26.2618 11.26C28.2918 10.714 29.2018 9.37 29.2438 7.998H26.7238V6.542H29.2438V5.268H31.0918V6.542H33.6398V7.998H31.0918C31.1338 9.258 32.0298 10.546 34.0738 11.05ZM36.6778 14.662H33.4298C33.7798 15.586 35.0118 16.51 37.2378 16.776L36.5658 18.176C34.5218 17.924 33.0938 17.098 32.3658 16.006C31.6238 17.098 30.1958 17.896 28.1378 18.162L27.4798 16.762C29.7338 16.51 30.9518 15.614 31.2738 14.662H28.0398V13.206H36.6778V14.662ZM36.5098 8.194H38.2178V9.72H36.5098V12.646H34.6618V5.31H36.5098V8.194ZM39.9527 6.64H46.1407C46.1407 10.588 44.8107 13.808 40.2327 16.02L39.2667 14.564C42.5567 12.982 43.9847 10.966 44.2507 8.11H39.9527V6.64ZM48.1147 5.296H49.9767V18.19H48.1147V5.296ZM60.1335 8.04V8.488C60.1335 10.756 61.1555 13.136 63.2975 14.116L62.2335 15.572C60.7775 14.858 59.7835 13.528 59.2235 11.918C58.6775 13.654 57.6695 15.082 56.1855 15.824L55.0935 14.368C57.2495 13.36 58.2715 10.882 58.2715 8.488V8.04H55.6255V6.542H62.7795V8.04H60.1335ZM64.2635 5.296H66.1115V18.232H64.2635V11.302H61.9955V9.804H64.2635V5.296ZM75.8544 11.162L74.9724 12.59C73.5584 12.17 72.5784 11.316 72.0184 10.252C71.4444 11.526 70.4224 12.548 68.9104 13.038L67.9864 11.596C70.0724 10.896 70.9964 9.258 71.0244 7.648H68.4624V6.164H75.4344V7.648H72.9144C72.9424 9.118 73.8244 10.56 75.8544 11.162ZM74.1044 16.79C75.7424 16.79 76.6244 16.44 76.6244 15.712C76.6244 14.97 75.7424 14.62 74.1044 14.62C72.4524 14.62 71.5704 14.97 71.5704 15.712C71.5704 16.44 72.4524 16.79 74.1044 16.79ZM74.1044 13.192C76.7784 13.192 78.4584 14.13 78.4584 15.712C78.4584 17.28 76.7784 18.204 74.1044 18.204C71.4164 18.204 69.7364 17.28 69.7364 15.712C69.7364 14.13 71.4164 13.192 74.1044 13.192ZM78.3184 8.278H80.0264V9.79H78.3184V12.968H76.4704V5.31H78.3184V8.278Z" fill="#707792"/>
<rect x="85.5" y="0.5" width="33" height="23" rx="11.5" fill="#567BFF" stroke="#2F5DFF"/>
<path d="M101.049 5.92705C101.348 5.00574 102.652 5.00574 102.951 5.92705L103.796 8.52786C103.93 8.93989 104.314 9.21885 104.747 9.21885H107.482C108.451 9.21885 108.853 10.4585 108.07 11.0279L105.857 12.6353C105.507 12.8899 105.36 13.3413 105.494 13.7533L106.339 16.3541C106.638 17.2754 105.584 18.0415 104.8 17.4721L102.588 15.8647C102.237 15.6101 101.763 15.6101 101.412 15.8647L99.1998 17.4721C98.4161 18.0415 97.3616 17.2754 97.661 16.3541L98.506 13.7533C98.6399 13.3413 98.4933 12.8899 98.1428 12.6353L95.9304 11.0279C95.1467 10.4585 95.5495 9.21885 96.5182 9.21885H99.2528C99.6861 9.21885 100.07 8.93989 100.204 8.52786L101.049 5.92705Z" fill="white"/>
</svg>
