<svg
        xmlns="http://www.w3.org/2000/svg"
        width="25"
        height="19"
        viewBox="0 0 25 19"
        fill="none"
>
    <g opacity="1" clip-path="url(#clip0_85_1523)">
        <path
                fill-rule="evenodd"
                clip-rule="evenodd"
                d="M11.1338 10.6544C11.0775 10.6547 11.0218 10.6434 10.97 10.6212L-0.740089 5.67053C-0.817047 5.63834 -0.882802 5.58395 -0.929058 5.51422C-0.975315 5.44449 -1 5.36254 -1 5.27872C-1 5.1949 -0.975315 5.11295 -0.929058 5.04322C-0.882802 4.97349 -0.817047 4.9191 -0.740089 4.88691L10.9728 0.0317327C11.0757 -0.0109031 11.1912 -0.0109031 11.2942 0.0317327L23.0042 4.88691C23.0812 4.9191 23.1469 4.97349 23.1932 5.04322C23.2395 5.11295 23.2641 5.1949 23.2641 5.27872C23.2641 5.36254 23.2395 5.44449 23.1932 5.51422C23.1469 5.58395 23.0812 5.63834 23.0042 5.67053L11.2942 10.6212C11.2435 10.643 11.189 10.6543 11.1338 10.6544Z"
                fill="#2F5DFF"
        />
        <path
                fill-rule="evenodd"
                clip-rule="evenodd"
                d="M22.5306 4.71661C22.7607 4.71661 22.9473 4.90316 22.9473 5.13328L22.9473 12.4666C22.9473 12.6967 22.7607 12.8833 22.5306 12.8833C22.3005 12.8833 22.1139 12.6967 22.1139 12.4666L22.1139 5.13328C22.1139 4.90316 22.3005 4.71661 22.5306 4.71661Z"
                fill="#2F5DFF"
        />
        <ellipse
                cx="22.5307"
                cy="12.0999"
                rx="1.10294"
                ry="1.1"
                fill="#2F5DFF"
        />
        <path
                fill-rule="evenodd"
                clip-rule="evenodd"
                d="M16.4524 8.26658H5.8151V12.5004L11.1337 15.0221L16.4524 12.5004L16.4524 8.26658ZM5.8151 6.59991C4.89463 6.59991 4.14844 7.34611 4.14844 8.26658V12.5004C4.14844 13.1443 4.51931 13.7306 5.1011 14.0064L10.4197 16.5281C10.8716 16.7423 11.3958 16.7423 11.8477 16.5281L17.1664 14.0064C17.7482 13.7306 18.119 13.1443 18.119 12.5004V8.26658C18.119 7.34611 17.3728 6.59991 16.4524 6.59991H5.8151Z"
                fill="#2F5DFF"
        />
    </g>
    <defs>
        <clipPath id="clip0_85_1523">
            <rect width="25" height="18.3333" fill="white" />
        </clipPath>
    </defs>
</svg>