<svg width="32" height="32" viewBox="0 0 32 32" fill="none" xmlns="http://www.w3.org/2000/svg">
<g id="Capa_1" clip-path="url(#clip0_401_1969)">
<path id="Vector" d="M31.0621 10.0419H22.0527L25.1315 13.1206H31.9996V10.9794C31.9996 10.7307 31.9008 10.4923 31.725 10.3165C31.5492 10.1406 31.3107 10.0419 31.0621 10.0419Z" fill="white"/>
<path id="Vector_2" d="M9.94687 10.0419H0.9375C0.68886 10.0419 0.450403 10.1406 0.274587 10.3165C0.098772 10.4923 0 10.7307 0 10.9794L0 13.1206H6.86812L9.94687 10.0419Z" fill="white"/>
<path id="Vector_3" d="M13.9248 22.9625H18.0748V32H13.9248V22.9625Z" fill="white"/>
<path id="Vector_4" d="M15.9993 14.9294C15.7876 14.9294 15.5806 14.9922 15.4045 15.1098C15.2285 15.2275 15.0912 15.3947 15.0102 15.5903C14.9292 15.7859 14.908 16.0012 14.9493 16.2089C14.9906 16.4166 15.0926 16.6073 15.2423 16.7571C15.392 16.9068 15.5828 17.0087 15.7905 17.0501C15.9981 17.0914 16.2134 17.0702 16.409 16.9891C16.6047 16.9081 16.7719 16.7709 16.8895 16.5948C17.0072 16.4188 17.07 16.2118 17.07 16C17.0698 15.7161 16.9569 15.4439 16.7562 15.2431C16.5555 15.0424 16.2832 14.9295 15.9993 14.9294Z" fill="white"/>
<path id="Vector_5" d="M16.9375 7.57812V4.95312H22.025C22.2736 4.95312 22.5121 4.85435 22.6879 4.67854C22.8637 4.50272 22.9625 4.26427 22.9625 4.01562V0.9375C22.9625 0.68886 22.8637 0.450403 22.6879 0.274587C22.5121 0.098772 22.2736 0 22.025 0L16 0C15.7514 0 15.5129 0.098772 15.3371 0.274587C15.1613 0.450403 15.0625 0.68886 15.0625 0.9375V7.57812L7.645 14.9956H0V31.0625C0 31.3111 0.098772 31.5496 0.274587 31.7254C0.450403 31.9012 0.68886 32 0.9375 32H12.05V22.025C12.05 21.7764 12.1488 21.5379 12.3246 21.3621C12.5004 21.1863 12.7389 21.0875 12.9875 21.0875H19.0125C19.2611 21.0875 19.4996 21.1863 19.6754 21.3621C19.8512 21.5379 19.95 21.7764 19.95 22.025V32H31.0625C31.3111 32 31.5496 31.9012 31.7254 31.7254C31.9012 31.5496 32 31.3111 32 31.0625V14.9956H24.355L16.9375 7.57812ZM5.89187 27.0456C5.89187 27.2943 5.7931 27.5327 5.61729 27.7085C5.44147 27.8844 5.20302 27.9831 4.95437 27.9831C4.70573 27.9831 4.46728 27.8844 4.29146 27.7085C4.11565 27.5327 4.01687 27.2943 4.01687 27.0456V25.0375C4.01687 24.7889 4.11565 24.5504 4.29146 24.3746C4.46728 24.1988 4.70573 24.1 4.95437 24.1C5.20302 24.1 5.44147 24.1988 5.61729 24.3746C5.7931 24.5504 5.89187 24.7889 5.89187 25.0375V27.0456ZM5.89187 21.0206C5.89187 21.2693 5.7931 21.5077 5.61729 21.6835C5.44147 21.8594 5.20302 21.9581 4.95437 21.9581C4.70573 21.9581 4.46728 21.8594 4.29146 21.6835C4.11565 21.5077 4.01687 21.2693 4.01687 21.0206V19.0125C4.01687 18.7639 4.11565 18.5254 4.29146 18.3496C4.46728 18.1738 4.70573 18.075 4.95437 18.075C5.20302 18.075 5.44147 18.1738 5.61729 18.3496C5.7931 18.5254 5.89187 18.7639 5.89187 19.0125V21.0206ZM9.90812 27.0456C9.90812 27.2943 9.80935 27.5327 9.63354 27.7085C9.45772 27.8844 9.21926 27.9831 8.97062 27.9831C8.72198 27.9831 8.48353 27.8844 8.30771 27.7085C8.1319 27.5327 8.03312 27.2943 8.03312 27.0456V25.0375C8.03312 24.7889 8.1319 24.5504 8.30771 24.3746C8.48353 24.1988 8.72198 24.1 8.97062 24.1C9.21926 24.1 9.45772 24.1988 9.63354 24.3746C9.80935 24.5504 9.90812 24.7889 9.90812 25.0375V27.0456ZM9.90812 21.0206C9.90812 21.2693 9.80935 21.5077 9.63354 21.6835C9.45772 21.8594 9.21926 21.9581 8.97062 21.9581C8.72198 21.9581 8.48353 21.8594 8.30771 21.6835C8.1319 21.5077 8.03312 21.2693 8.03312 21.0206V19.0125C8.03312 18.7639 8.1319 18.5254 8.30771 18.3496C8.48353 18.1738 8.72198 18.075 8.97062 18.075C9.21926 18.075 9.45772 18.1738 9.63354 18.3496C9.80935 18.5254 9.90812 18.7639 9.90812 19.0125V21.0206ZM16 18.9456C15.4174 18.9456 14.8479 18.7729 14.3635 18.4492C13.8791 18.1255 13.5015 17.6655 13.2786 17.1272C13.0556 16.589 12.9973 15.9967 13.111 15.4253C13.2246 14.8539 13.5052 14.3291 13.9171 13.9171C14.3291 13.5052 14.8539 13.2246 15.4253 13.111C15.9967 12.9973 16.589 13.0556 17.1272 13.2786C17.6655 13.5015 18.1255 13.8791 18.4492 14.3635C18.7729 14.8479 18.9456 15.4174 18.9456 16C18.9448 16.781 18.6342 17.5297 18.082 18.082C17.5297 18.6342 16.781 18.9448 16 18.9456ZM23.9669 27.0456C23.9669 27.2943 23.8681 27.5327 23.6923 27.7085C23.5165 27.8844 23.278 27.9831 23.0294 27.9831C22.7807 27.9831 22.5423 27.8844 22.3665 27.7085C22.1906 27.5327 22.0919 27.2943 22.0919 27.0456V25.0375C22.0919 24.7889 22.1906 24.5504 22.3665 24.3746C22.5423 24.1988 22.7807 24.1 23.0294 24.1C23.278 24.1 23.5165 24.1988 23.6923 24.3746C23.8681 24.5504 23.9669 24.7889 23.9669 25.0375V27.0456ZM23.9669 21.0206C23.9669 21.2693 23.8681 21.5077 23.6923 21.6835C23.5165 21.8594 23.278 21.9581 23.0294 21.9581C22.7807 21.9581 22.5423 21.8594 22.3665 21.6835C22.1906 21.5077 22.0919 21.2693 22.0919 21.0206V19.0125C22.0919 18.7639 22.1906 18.5254 22.3665 18.3496C22.5423 18.1738 22.7807 18.075 23.0294 18.075C23.278 18.075 23.5165 18.1738 23.6923 18.3496C23.8681 18.5254 23.9669 18.7639 23.9669 19.0125V21.0206ZM26.1081 19.0125C26.1081 18.7639 26.2069 18.5254 26.3827 18.3496C26.5585 18.1738 26.797 18.075 27.0456 18.075C27.2943 18.075 27.5327 18.1738 27.7085 18.3496C27.8844 18.5254 27.9831 18.7639 27.9831 19.0125V21.0206C27.9831 21.2693 27.8844 21.5077 27.7085 21.6835C27.5327 21.8594 27.2943 21.9581 27.0456 21.9581C26.797 21.9581 26.5585 21.8594 26.3827 21.6835C26.2069 21.5077 26.1081 21.2693 26.1081 21.0206V19.0125ZM26.1081 25.0375C26.1081 24.7889 26.2069 24.5504 26.3827 24.3746C26.5585 24.1988 26.797 24.1 27.0456 24.1C27.2943 24.1 27.5327 24.1988 27.7085 24.3746C27.8844 24.5504 27.9831 24.7889 27.9831 25.0375V27.0456C27.9831 27.2943 27.8844 27.5327 27.7085 27.7085C27.5327 27.8844 27.2943 27.9831 27.0456 27.9831C26.797 27.9831 26.5585 27.8844 26.3827 27.7085C26.2069 27.5327 26.1081 27.2943 26.1081 27.0456V25.0375Z" fill="white"/>
</g>
<defs>
<clipPath id="clip0_401_1969">
<rect width="32" height="32" fill="white"/>
</clipPath>
</defs>
</svg>
