<svg width="43" height="31" viewBox="0 0 43 31" fill="none" xmlns="http://www.w3.org/2000/svg">
<g id="&#234;&#178;&#169;&#235;&#166;&#172;_&#235;&#170;&#168;&#235;&#147;&#156;" clip-path="url(#clip0_401_1963)">
<g id="Group 67">
<path id="Vector" fill-rule="evenodd" clip-rule="evenodd" d="M19.1505 18.0156C19.0536 18.0161 18.9577 17.997 18.8686 17.9594L-1.27268 9.58833C-1.40505 9.53391 -1.51815 9.44194 -1.59771 9.32403C-1.67727 9.20612 -1.71973 9.06756 -1.71973 8.92582C-1.71973 8.78408 -1.67727 8.64552 -1.59771 8.52761C-1.51815 8.4097 -1.40505 8.31773 -1.27268 8.26331L18.8735 0.0536427C19.0505 -0.0184506 19.2492 -0.0184506 19.4262 0.0536427L39.5676 8.26331C39.6999 8.31773 39.813 8.4097 39.8926 8.52761C39.9721 8.64552 40.0146 8.78408 40.0146 8.92582C40.0146 9.06756 39.9721 9.20612 39.8926 9.32403C39.813 9.44194 39.6999 9.53391 39.5676 9.58833L19.4262 17.9594C19.3391 17.9963 19.2453 18.0154 19.1505 18.0156Z" fill="white"/>
<path id="Line 29 (Stroke)" fill-rule="evenodd" clip-rule="evenodd" d="M38.7531 7.97534C39.1489 7.97534 39.4697 8.29078 39.4697 8.67989L39.4697 21.0799C39.4697 21.469 39.1489 21.7844 38.7531 21.7844C38.3573 21.7844 38.0364 21.469 38.0364 21.0799L38.0364 8.67989C38.0364 8.29078 38.3573 7.97534 38.7531 7.97534Z" fill="white"/>
<ellipse id="Ellipse 16" cx="38.7535" cy="20.4599" rx="1.89706" ry="1.86" fill="white"/>
<path id="Rectangle 94 (Stroke)" fill-rule="evenodd" clip-rule="evenodd" d="M28.2985 13.978H10.0024V21.1371L19.1504 25.401L28.2985 21.1371V13.978ZM10.0024 11.1599C8.41919 11.1599 7.13574 12.4216 7.13574 13.978V21.1371C7.13574 22.2258 7.77364 23.2172 8.77432 23.6836L17.9224 27.9474C18.6996 28.3097 19.6013 28.3097 20.3785 27.9474L29.5266 23.6836C30.5273 23.2172 31.1652 22.2258 31.1652 21.1371V13.978C31.1652 12.4216 29.8817 11.1599 28.2985 11.1599H10.0024Z" fill="white"/>
</g>
</g>
<defs>
<clipPath id="clip0_401_1963">
<rect width="43" height="31" fill="white"/>
</clipPath>
</defs>
</svg>
