<svg width="304" height="70" viewBox="0 0 304 70" fill="none" xmlns="http://www.w3.org/2000/svg">
<path fill-rule="evenodd" clip-rule="evenodd" d="M17 0C14.2386 0 12 2.23858 12 5V29.1702L0 34.5L12 40.3143V65C12 67.7614 14.2386 70 17 70H299C301.761 70 304 67.7614 304 65V5C304 2.23858 301.761 0 299 0H17Z" fill="black" fill-opacity="0.6"/>
<path d="M31.918 12.628V12.342H24.807V11.471H32.984V12.628C32.984 14.071 32.984 15.67 32.542 18.023L31.476 17.906C31.918 15.67 31.918 14.032 31.918 12.628ZM28.863 19.453H34.245V20.324H23.702V19.453H27.797V15.28H28.863V19.453ZM44.969 13.876V14.734H36.974V10.769H44.891V11.627H38.04V13.876H44.969ZM40.913 21.117C42.733 21.117 43.825 20.662 43.825 19.843C43.825 19.024 42.746 18.569 40.913 18.569C39.08 18.569 38.001 19.024 38.001 19.843C38.001 20.662 39.08 21.117 40.913 21.117ZM40.913 17.737C43.396 17.737 44.904 18.491 44.904 19.843C44.904 21.195 43.396 21.949 40.913 21.949C38.43 21.949 36.922 21.195 36.922 19.843C36.922 18.491 38.43 17.737 40.913 17.737ZM35.648 15.852H46.204V16.736H35.648V15.852ZM54.523 11.536V12.394H47.646V11.536H50.545V10.236H51.611V11.536H54.523ZM49.31 15.098C49.31 15.878 50.012 16.385 51.078 16.385C52.144 16.385 52.859 15.878 52.859 15.098C52.859 14.331 52.144 13.824 51.078 13.824C50.012 13.824 49.31 14.331 49.31 15.098ZM53.873 15.098C53.873 16.385 52.742 17.204 51.078 17.204C49.427 17.204 48.296 16.385 48.296 15.098C48.296 13.824 49.427 12.992 51.078 12.992C52.742 12.992 53.873 13.824 53.873 15.098ZM49.089 19.102V18.231H56.655V21.975H55.589V19.102H49.089ZM58.384 13.525V14.409H56.655V17.594H55.589V10.314H56.655V13.525H58.384ZM67.808 12.758V12.342H60.658V11.471H68.874V12.758C68.874 14.24 68.874 15.761 68.458 17.945L67.405 17.815C67.808 15.735 67.808 14.201 67.808 12.758ZM66.092 19.453H70.109V20.324H59.566V19.453H62.153V15.592H63.206V19.453H65.039V15.592H66.092V19.453ZM76.3349 15.514V12.043H73.1109V15.514H76.3349ZM80.0529 13.057H77.3749V14.5H80.0529V13.057ZM77.3749 15.358V16.359H72.0579V11.185H77.3749V12.199H80.0529V10.314H81.1319V17.204H80.0529V15.358H77.3749ZM77.2709 21.117C79.0389 21.117 80.1049 20.61 80.1049 19.752C80.1049 18.894 79.0389 18.387 77.2709 18.387C75.5289 18.387 74.4629 18.894 74.4629 19.752C74.4629 20.61 75.5289 21.117 77.2709 21.117ZM77.2709 17.555C79.6759 17.555 81.1709 18.348 81.1709 19.752C81.1709 21.143 79.6759 21.949 77.2709 21.949C74.8789 21.949 73.3969 21.143 73.3969 19.752C73.3969 18.348 74.8789 17.555 77.2709 17.555ZM87.1061 11.042H92.3711C92.3711 13.993 90.3041 16.086 86.9631 17.035L86.5211 16.203C89.2901 15.41 91.0191 13.889 91.2401 11.913H87.1061V11.042ZM89.5111 18.296V20.935H94.9451V18.296H89.5111ZM88.4581 21.793V17.451H95.9981V21.793H88.4581ZM94.9191 10.301H95.9981V16.957H94.9191V14.175H92.3841V13.304H94.9191V10.301ZM104.187 15.826L103.615 16.632C102.536 16.19 101.73 15.332 101.314 14.331C100.898 15.436 100.066 16.424 98.9351 16.931L98.3631 16.112C99.8841 15.423 100.794 13.889 100.794 12.563V10.99H101.821V12.563C101.821 13.876 102.679 15.228 104.187 15.826ZM100.352 18.855V17.997H108.191V21.962H107.125V18.855H100.352ZM107.164 10.314H108.191V17.36H107.164V14.214H105.682V17.282H104.668V10.509H105.682V13.343H107.164V10.314ZM115.574 11.562C113.741 11.562 112.571 12.108 112.571 13.031C112.571 13.954 113.741 14.487 115.574 14.487C117.407 14.487 118.577 13.954 118.577 13.031C118.577 12.108 117.407 11.562 115.574 11.562ZM115.574 15.345C113.078 15.345 111.479 14.487 111.479 13.031C111.479 11.575 113.078 10.704 115.574 10.704C118.07 10.704 119.669 11.575 119.669 13.031C119.669 14.487 118.07 15.345 115.574 15.345ZM112.727 18.322V20.831H119.682V21.702H111.661V18.322H112.727ZM110.296 16.437H120.839V17.295H110.296V16.437ZM128.061 18.374C128.958 18.374 129.608 17.633 129.608 16.593C129.608 15.579 128.958 14.838 128.061 14.838C127.151 14.838 126.514 15.579 126.514 16.593C126.514 17.633 127.151 18.374 128.061 18.374ZM128.061 13.941C129.504 13.941 130.557 15.033 130.557 16.593C130.557 18.179 129.504 19.258 128.061 19.258C126.618 19.258 125.565 18.179 125.565 16.593C125.565 15.033 126.618 13.941 128.061 13.941ZM128.581 10.639V12.29H130.947V13.161H125.162V12.29H127.528V10.639H128.581ZM134.028 10.288H135.055V21.949H134.028V16.086H132.533V21.39H131.532V10.561H132.533V15.215H134.028V10.288ZM143.894 15.033L144.011 15.904C142.412 16.229 141.021 16.307 138.564 16.307H137.654V11.198H142.802V12.056H138.707V15.436C141.021 15.436 142.36 15.358 143.894 15.033ZM142.477 21.091C144.193 21.091 145.259 20.571 145.259 19.713C145.259 18.855 144.193 18.335 142.477 18.335C140.748 18.335 139.682 18.855 139.682 19.713C139.682 20.571 140.748 21.091 142.477 21.091ZM142.477 17.477C144.83 17.477 146.312 18.309 146.312 19.713C146.312 21.117 144.83 21.949 142.477 21.949C140.111 21.949 138.629 21.117 138.629 19.713C138.629 18.309 140.111 17.477 142.477 17.477ZM146.195 13.33H147.911V14.214H146.195V17.243H145.116V10.301H146.195V13.33ZM160.23 12.628V12.342H153.119V11.471H161.296V12.628C161.296 14.071 161.296 15.67 160.854 18.023L159.788 17.906C160.23 15.67 160.23 14.032 160.23 12.628ZM157.175 19.453H162.557V20.324H152.014V19.453H156.109V15.28H157.175V19.453ZM173.281 13.876V14.734H165.286V10.769H173.203V11.627H166.352V13.876H173.281ZM169.225 21.117C171.045 21.117 172.137 20.662 172.137 19.843C172.137 19.024 171.058 18.569 169.225 18.569C167.392 18.569 166.313 19.024 166.313 19.843C166.313 20.662 167.392 21.117 169.225 21.117ZM169.225 17.737C171.708 17.737 173.216 18.491 173.216 19.843C173.216 21.195 171.708 21.949 169.225 21.949C166.742 21.949 165.234 21.195 165.234 19.843C165.234 18.491 166.742 17.737 169.225 17.737ZM163.96 15.852H174.516V16.736H163.96V15.852ZM182.834 11.536V12.394H175.957V11.536H178.856V10.236H179.922V11.536H182.834ZM177.621 15.098C177.621 15.878 178.323 16.385 179.389 16.385C180.455 16.385 181.17 15.878 181.17 15.098C181.17 14.331 180.455 13.824 179.389 13.824C178.323 13.824 177.621 14.331 177.621 15.098ZM182.184 15.098C182.184 16.385 181.053 17.204 179.389 17.204C177.738 17.204 176.607 16.385 176.607 15.098C176.607 13.824 177.738 12.992 179.389 12.992C181.053 12.992 182.184 13.824 182.184 15.098ZM177.4 19.102V18.231H184.966V21.975H183.9V19.102H177.4ZM186.695 13.525V14.409H184.966V17.594H183.9V10.314H184.966V13.525H186.695ZM196.119 12.758V12.342H188.969V11.471H197.185V12.758C197.185 14.24 197.185 15.761 196.769 17.945L195.716 17.815C196.119 15.735 196.119 14.201 196.119 12.758ZM194.403 19.453H198.42V20.324H187.877V19.453H190.464V15.592H191.517V19.453H193.35V15.592H194.403V19.453ZM203.619 11.159C205.439 11.159 206.739 12.264 206.739 13.902C206.739 15.527 205.439 16.645 203.619 16.645C201.812 16.645 200.499 15.527 200.499 13.902C200.499 12.264 201.812 11.159 203.619 11.159ZM203.619 12.069C202.423 12.069 201.539 12.81 201.539 13.902C201.539 14.981 202.423 15.735 203.619 15.735C204.828 15.735 205.699 14.981 205.699 13.902C205.699 12.81 204.828 12.069 203.619 12.069ZM208.273 10.301H209.339V21.988H208.273V10.301ZM200.044 19.427L199.914 18.53C202.033 18.53 204.958 18.517 207.506 18.127L207.597 18.92C204.971 19.401 202.15 19.427 200.044 19.427ZM218.863 12.381V13.863C218.863 15.839 220.267 17.854 221.983 18.582L221.385 19.44C220.033 18.816 218.889 17.477 218.33 15.878C217.797 17.581 216.653 19.05 215.327 19.726L214.703 18.868C216.38 18.075 217.797 15.878 217.797 13.863V12.381H215.093V11.497H221.606V12.381H218.863ZM223.179 10.314H224.245V21.962H223.179V10.314ZM228.469 18.686V17.815H236.269V21.975H235.19V18.686H228.469ZM232.707 14.63H235.19V12.875H232.707C232.785 13.148 232.837 13.434 232.837 13.746C232.837 14.071 232.785 14.357 232.707 14.63ZM229.834 15.657C230.978 15.657 231.823 14.864 231.823 13.746C231.823 12.654 230.978 11.861 229.834 11.861C228.703 11.861 227.858 12.654 227.858 13.746C227.858 14.864 228.703 15.657 229.834 15.657ZM235.19 10.314L236.269 10.301V17.178H235.19V15.501H232.239C231.693 16.164 230.848 16.567 229.834 16.567C228.118 16.567 226.844 15.397 226.844 13.746C226.844 12.108 228.118 10.951 229.834 10.951C230.848 10.951 231.706 11.354 232.252 12.017H235.19V10.314ZM251.083 10.301V16.996H250.017V10.301H251.083ZM246.546 14.968V11.9H243.179V14.968H246.546ZM247.586 11.055V15.826H242.139V11.055H247.586ZM251.356 18.608H247.95C247.963 19.726 249.77 20.857 251.772 21.104L251.408 21.923C249.653 21.676 248.093 20.87 247.404 19.791C246.702 20.896 245.09 21.676 243.335 21.923L242.984 21.104C244.973 20.87 246.832 19.765 246.845 18.608H243.439V17.789H246.858V16.658H247.937V17.789H251.356V18.608ZM261.646 11.627C259.878 11.627 258.669 12.277 258.669 13.304C258.669 14.331 259.878 14.994 261.646 14.994C263.427 14.994 264.636 14.331 264.636 13.304C264.636 12.277 263.427 11.627 261.646 11.627ZM261.646 15.852C259.228 15.852 257.577 14.864 257.577 13.304C257.577 11.744 259.228 10.769 261.646 10.769C264.077 10.769 265.728 11.744 265.728 13.304C265.728 14.864 264.077 15.852 261.646 15.852ZM266.95 16.944V17.815H264.194V21.962H263.115V17.815H260.19V21.962H259.111V17.815H256.394V16.944H266.95ZM276.881 15.371V13.967H274.918V13.109H276.881V10.301H277.96V17.828H276.881V16.242H274.905V15.371H276.881ZM274.905 11.588V12.446H268.379V11.588H271.161V10.197H272.227V11.588H274.905ZM270.043 15.202C270.043 16.021 270.706 16.554 271.681 16.554C272.656 16.554 273.319 16.021 273.319 15.202C273.319 14.396 272.656 13.863 271.681 13.863C270.706 13.863 270.043 14.396 270.043 15.202ZM274.32 15.202C274.32 16.515 273.228 17.373 271.681 17.373C270.121 17.373 269.042 16.515 269.042 15.202C269.042 13.902 270.121 13.044 271.681 13.044C273.228 13.044 274.32 13.902 274.32 15.202ZM274.138 21.13C275.854 21.13 276.907 20.701 276.907 19.96C276.907 19.206 275.854 18.79 274.138 18.79C272.422 18.79 271.356 19.206 271.356 19.96C271.356 20.701 272.422 21.13 274.138 21.13ZM274.138 17.971C276.543 17.971 278.012 18.686 278.012 19.96C278.012 21.221 276.543 21.949 274.138 21.949C271.72 21.949 270.251 21.221 270.251 19.96C270.251 18.686 271.72 17.971 274.138 17.971ZM285.577 11.302C283.666 11.302 282.574 11.744 282.574 12.524C282.574 13.304 283.666 13.746 285.577 13.746C287.488 13.746 288.58 13.304 288.58 12.524C288.58 11.744 287.488 11.302 285.577 11.302ZM285.577 14.539C283.016 14.539 281.482 13.837 281.482 12.524C281.482 11.211 283.016 10.496 285.577 10.496C288.138 10.496 289.672 11.211 289.672 12.524C289.672 13.837 288.138 14.539 285.577 14.539ZM282.652 19.817V21H289.854V21.832H281.612V19.037H288.45V17.997H281.573V17.191H289.503V19.817H282.652ZM280.299 15.332H290.855V16.19H280.299V15.332ZM24.95 32.304C24.95 33.331 25.782 34.046 26.913 34.046C28.057 34.046 28.889 33.331 28.889 32.304C28.889 31.303 28.057 30.575 26.913 30.575C25.782 30.575 24.95 31.303 24.95 32.304ZM29.929 32.304C29.929 33.851 28.668 34.917 26.913 34.917C25.171 34.917 23.91 33.851 23.91 32.304C23.91 30.783 25.171 29.717 26.913 29.717C28.668 29.717 29.929 30.783 29.929 32.304ZM26.406 38.648V39.948H33.166V40.806H25.366V37.855H31.684V36.633H25.327V35.788H32.737V38.648H26.406ZM32.737 31.81H34.466V32.694H32.737V35.242H31.671V29.301H32.737V31.81ZM38.755 37.387C39.873 37.387 40.666 36.165 40.666 34.267C40.666 32.382 39.873 31.16 38.755 31.16C37.624 31.16 36.831 32.382 36.831 34.267C36.831 36.165 37.624 37.387 38.755 37.387ZM38.755 30.198C40.471 30.198 41.68 31.784 41.68 34.267C41.68 36.75 40.471 38.336 38.755 38.336C37.039 38.336 35.817 36.75 35.817 34.267C35.817 31.784 37.039 30.198 38.755 30.198ZM46.542 33.955V34.852H44.618V40.962H43.552V29.314H44.618V33.955H46.542ZM49.908 33.084V35.229H55.862V33.084H49.908ZM53.418 38.596H58.176V39.467H47.607V38.596H52.339V36.087H48.855V30.133H49.908V32.213H55.862V30.133H56.902V36.087H53.418V38.596ZM60.255 30.562H65.715C65.715 33.929 64.168 36.893 60.294 38.791L59.722 37.92C62.855 36.425 64.415 34.189 64.636 31.42H60.255V30.562ZM68.068 29.301H69.134V40.962H68.068V29.301ZM78.2542 30.731C77.1102 30.731 76.3042 31.342 76.3042 32.252C76.3042 33.162 77.1102 33.773 78.2542 33.773C79.3852 33.773 80.1912 33.162 80.1912 32.252C80.1912 31.342 79.3852 30.731 78.2542 30.731ZM78.2542 34.644C76.5122 34.644 75.2772 33.669 75.2772 32.252C75.2772 30.822 76.5122 29.847 78.2542 29.847C79.9832 29.847 81.2182 30.822 81.2182 32.252C81.2182 33.669 79.9832 34.644 78.2542 34.644ZM82.0892 35.216L82.1802 36.009C81.0752 36.204 79.9442 36.334 78.8392 36.399V40.598H77.7732V36.464C76.6162 36.516 75.5112 36.529 74.5492 36.529L74.4062 35.632C76.5772 35.632 79.5282 35.606 82.0892 35.216ZM82.9342 29.314H84.0002V40.975H82.9342V29.314ZM93.3071 30.731V31.589H86.4301V30.731H89.3291V29.301H90.3951V30.731H93.3071ZM88.0941 34.397C88.0941 35.216 88.8091 35.736 89.8621 35.736C90.9151 35.736 91.6431 35.216 91.6431 34.397C91.6431 33.591 90.9151 33.071 89.8621 33.071C88.8091 33.071 88.0941 33.591 88.0941 34.397ZM92.6571 34.397C92.6571 35.71 91.5131 36.568 89.8621 36.568C88.2111 36.568 87.0801 35.71 87.0801 34.397C87.0801 33.097 88.2111 32.239 89.8621 32.239C91.5131 32.239 92.6571 33.097 92.6571 34.397ZM89.2511 37.361V39.831H95.9591V40.702H88.1851V37.361H89.2511ZM95.4391 33.149H97.1551V34.046H95.4391V38.05H94.3731V29.301H95.4391V33.149ZM106.093 34.553V32.629H102.791V34.553H106.093ZM107.133 30.042V35.411H101.738V30.042H102.791V31.797H106.093V30.042H107.133ZM106.6 40.117C108.316 40.117 109.369 39.623 109.369 38.791C109.369 37.959 108.316 37.478 106.6 37.478C104.858 37.478 103.818 37.959 103.818 38.791C103.818 39.623 104.858 40.117 106.6 40.117ZM106.6 36.62C108.966 36.62 110.435 37.413 110.435 38.791C110.435 40.169 108.966 40.962 106.6 40.962C104.221 40.962 102.752 40.169 102.752 38.791C102.752 37.413 104.221 36.62 106.6 36.62ZM110.305 32.239H112.034V33.123H110.305V36.321H109.239V29.301H110.305V32.239ZM121.757 39.935V38.479H116.401V39.935H121.757ZM121.757 37.647V36.23H122.81V40.793H115.348V36.23H116.401V37.647H121.757ZM118 34.371V32.525H114.854V34.371H118ZM121.744 29.314H122.823V35.684H121.744V33.045H119.053V35.242H113.801V29.912H114.854V31.693H118V29.912H119.053V32.174H121.744V29.314ZM130.44 30.029C132.858 30.029 134.678 31.316 134.678 33.253C134.678 35.203 132.858 36.477 130.44 36.477C128.022 36.477 126.202 35.203 126.202 33.253C126.202 31.316 128.022 30.029 130.44 30.029ZM130.44 30.9C128.607 30.9 127.216 31.849 127.216 33.253C127.216 34.67 128.607 35.606 130.44 35.606C132.286 35.606 133.664 34.67 133.664 33.253C133.664 31.849 132.286 30.9 130.44 30.9ZM125.162 38.531H135.757V39.415H125.162V38.531ZM142.945 38.648H147.716V39.519H137.121V38.648H141.866V36.451H138.447V32.85H145.363V31.03H138.421V30.159H146.403V33.708H139.5V35.593H146.676V36.451H142.945V38.648ZM160.23 31.628V31.342H153.119V30.471H161.296V31.628C161.296 33.071 161.296 34.67 160.854 37.023L159.788 36.906C160.23 34.67 160.23 33.032 160.23 31.628ZM157.175 38.453H162.557V39.324H152.014V38.453H156.109V34.28H157.175V38.453ZM173.281 32.876V33.734H165.286V29.769H173.203V30.627H166.352V32.876H173.281ZM169.225 40.117C171.045 40.117 172.137 39.662 172.137 38.843C172.137 38.024 171.058 37.569 169.225 37.569C167.392 37.569 166.313 38.024 166.313 38.843C166.313 39.662 167.392 40.117 169.225 40.117ZM169.225 36.737C171.708 36.737 173.216 37.491 173.216 38.843C173.216 40.195 171.708 40.949 169.225 40.949C166.742 40.949 165.234 40.195 165.234 38.843C165.234 37.491 166.742 36.737 169.225 36.737ZM163.96 34.852H174.516V35.736H163.96V34.852ZM182.834 30.536V31.394H175.957V30.536H178.856V29.236H179.922V30.536H182.834ZM177.621 34.098C177.621 34.878 178.323 35.385 179.389 35.385C180.455 35.385 181.17 34.878 181.17 34.098C181.17 33.331 180.455 32.824 179.389 32.824C178.323 32.824 177.621 33.331 177.621 34.098ZM182.184 34.098C182.184 35.385 181.053 36.204 179.389 36.204C177.738 36.204 176.607 35.385 176.607 34.098C176.607 32.824 177.738 31.992 179.389 31.992C181.053 31.992 182.184 32.824 182.184 34.098ZM177.4 38.102V37.231H184.966V40.975H183.9V38.102H177.4ZM186.695 32.525V33.409H184.966V36.594H183.9V29.314H184.966V32.525H186.695ZM196.119 31.758V31.342H188.969V30.471H197.185V31.758C197.185 33.24 197.185 34.761 196.769 36.945L195.716 36.815C196.119 34.735 196.119 33.201 196.119 31.758ZM194.403 38.453H198.42V39.324H187.877V38.453H190.464V34.592H191.517V38.453H193.35V34.592H194.403V38.453ZM204.646 34.514V31.043H201.422V34.514H204.646ZM208.364 32.057H205.686V33.5H208.364V32.057ZM205.686 34.358V35.359H200.369V30.185H205.686V31.199H208.364V29.314H209.443V36.204H208.364V34.358H205.686ZM205.582 40.117C207.35 40.117 208.416 39.61 208.416 38.752C208.416 37.894 207.35 37.387 205.582 37.387C203.84 37.387 202.774 37.894 202.774 38.752C202.774 39.61 203.84 40.117 205.582 40.117ZM205.582 36.555C207.987 36.555 209.482 37.348 209.482 38.752C209.482 40.143 207.987 40.949 205.582 40.949C203.19 40.949 201.708 40.143 201.708 38.752C201.708 37.348 203.19 36.555 205.582 36.555ZM218.629 31.381V32.863C218.629 34.722 219.955 36.789 221.645 37.582L221.034 38.44C219.734 37.79 218.642 36.425 218.109 34.865C217.576 36.568 216.445 38.05 215.132 38.726L214.508 37.881C216.172 37.049 217.576 34.839 217.576 32.863V31.381H214.911V30.497H221.216V31.381H218.629ZM225.597 34.007V34.904H223.673V40.962H222.607V29.314H223.673V34.007H225.597ZM230.055 32.33V32.889C230.055 34.748 230.991 36.672 232.564 37.517L231.953 38.323C230.822 37.686 229.99 36.503 229.561 35.099C229.158 36.581 228.339 37.881 227.195 38.57L226.571 37.777C228.144 36.841 229.041 34.8 229.041 32.889V32.33H226.883V31.446H229.041V29.717H230.068V31.446H232.213V32.33H230.055ZM233.201 33.903V29.574H234.215V40.351H233.201V34.787H231.42V33.903H233.201ZM235.541 29.301H236.568V40.949H235.541V29.301ZM247.968 32.811V33.682H240.038V29.73H241.104V32.811H247.968ZM241.026 37.27V39.805H248.033V40.676H239.96V37.27H241.026ZM238.608 35.242H249.177V36.1H238.608V35.242ZM28.707 54.671H30.293V51.993H28.707C28.772 52.409 28.811 52.838 28.811 53.332C28.811 53.826 28.772 54.255 28.707 54.671ZM26.315 56.413C27.251 56.413 27.836 55.23 27.836 53.332C27.836 51.447 27.251 50.264 26.315 50.264C25.392 50.264 24.794 51.447 24.794 53.332C24.794 55.23 25.392 56.413 26.315 56.413ZM30.293 51.122V48.561H31.307V59.39H30.293V55.555H28.486C28.07 56.725 27.329 57.401 26.315 57.401C24.807 57.401 23.832 55.841 23.832 53.332C23.832 50.836 24.807 49.276 26.315 49.276C27.329 49.276 28.083 49.952 28.486 51.122H30.293ZM32.581 48.301H33.595V59.962H32.581V48.301ZM36.61 53.54L36.285 52.734C38.482 52.513 40.25 51.616 40.341 50.316H36.74V49.471H40.393V48.262H41.459V49.471H45.112V50.316H41.498C41.589 51.616 43.357 52.513 45.567 52.734L45.229 53.54C43.318 53.345 41.628 52.643 40.926 51.473C40.224 52.643 38.521 53.345 36.61 53.54ZM36.818 57.141V56.296H44.891V59.962H43.825V57.141H36.818ZM35.648 54.19H46.191V55.048H35.648V54.19ZM56.135 50.823H53.262C52.534 52.656 50.753 53.904 48.179 54.515L47.789 53.644C50.636 52.981 52.261 51.59 52.456 49.744H48.4V48.873H53.613C53.613 49.263 53.574 49.627 53.496 49.991H56.135V48.301H57.214V54.255H56.135V53.046H53.093V52.214H56.135V50.823ZM50.779 59H57.604V59.845H49.726V56.842H56.148V55.646H49.7V54.788H57.214V57.648H50.779V59ZM65.65 54.84L64.584 54.736C64.909 52.799 64.935 51.382 64.935 50.446H60.086V49.575H65.975V50.212C65.975 51.148 65.975 52.669 65.65 54.84ZM62.972 52.903V56.465C64.246 56.413 65.546 56.335 66.729 56.192L66.794 56.972C64.376 57.362 61.633 57.414 59.566 57.414L59.449 56.53C60.19 56.53 61.048 56.517 61.919 56.491V52.903H62.972ZM70.369 53.176V54.073H68.51V59.962H67.444V48.301H68.51V53.176H70.369ZM74.1639 56.413C75.0739 56.413 75.6719 55.23 75.6719 53.319C75.6719 51.447 75.0739 50.264 74.1639 50.264C73.2279 50.264 72.6429 51.447 72.6429 53.319C72.6429 55.23 73.2279 56.413 74.1639 56.413ZM78.1029 52.838V48.561H79.1169V59.39H78.1029V53.709H76.6339C76.5429 55.997 75.5939 57.401 74.1639 57.401C72.6429 57.401 71.6679 55.841 71.6679 53.319C71.6679 50.836 72.6429 49.276 74.1639 49.276C75.5679 49.276 76.5039 50.641 76.6339 52.838H78.1029ZM80.4169 48.301H81.4309V59.962H80.4169V48.301ZM87.5871 51.759C87.5871 52.851 88.4451 53.631 89.5761 53.631C90.7201 53.631 91.5521 52.851 91.5521 51.759C91.5521 50.68 90.7201 49.9 89.5761 49.9C88.4451 49.9 87.5871 50.68 87.5871 51.759ZM94.9191 50.849H92.4231C92.5141 51.122 92.5661 51.421 92.5661 51.759C92.5661 52.084 92.5141 52.383 92.4101 52.669H94.9191V50.849ZM94.9191 53.54H91.9291C91.3961 54.164 90.5641 54.541 89.5761 54.541C87.8471 54.541 86.5731 53.397 86.5731 51.759C86.5731 50.134 87.8471 49.003 89.5761 49.003C90.5641 49.003 91.3961 49.38 91.9291 49.978H94.9191V48.301H95.9981V55.204H94.9191V53.54ZM92.1371 59.104C93.9181 59.104 94.9841 58.584 94.9841 57.713C94.9841 56.829 93.9181 56.309 92.1371 56.309C90.3821 56.309 89.3161 56.829 89.3161 57.713C89.3161 58.584 90.3821 59.104 92.1371 59.104ZM92.1371 55.477C94.5421 55.477 96.0371 56.296 96.0371 57.713C96.0371 59.13 94.5421 59.949 92.1371 59.949C89.7451 59.949 88.2631 59.13 88.2631 57.713C88.2631 56.296 89.7451 55.477 92.1371 55.477ZM105.266 49.614V50.472H98.3891V49.614H101.288V48.197H102.354V49.614H105.266ZM100.053 53.111C100.053 53.878 100.755 54.372 101.821 54.372C102.887 54.372 103.602 53.878 103.602 53.111C103.602 52.357 102.887 51.863 101.821 51.863C100.755 51.863 100.053 52.357 100.053 53.111ZM104.616 53.111C104.616 54.372 103.485 55.178 101.821 55.178C100.157 55.178 99.0391 54.372 99.0391 53.111C99.0391 51.863 100.157 51.057 101.821 51.057C103.485 51.057 104.616 51.863 104.616 53.111ZM103.745 59.13C105.448 59.13 106.488 58.688 106.488 57.934C106.488 57.18 105.448 56.738 103.745 56.738C102.042 56.738 101.002 57.18 101.002 57.934C101.002 58.688 102.042 59.13 103.745 59.13ZM103.745 55.919C106.085 55.919 107.541 56.647 107.541 57.934C107.541 59.208 106.085 59.949 103.745 59.949C101.392 59.949 99.9491 59.208 99.9491 57.934C99.9491 56.647 101.392 55.919 103.745 55.919ZM109.088 51.187H107.398V52.799H109.088V53.683H107.398V55.802H106.332V48.301H107.398V50.316H109.088V51.187ZM115.574 49.302C113.663 49.302 112.571 49.744 112.571 50.524C112.571 51.304 113.663 51.746 115.574 51.746C117.485 51.746 118.577 51.304 118.577 50.524C118.577 49.744 117.485 49.302 115.574 49.302ZM115.574 52.539C113.013 52.539 111.479 51.837 111.479 50.524C111.479 49.211 113.013 48.496 115.574 48.496C118.135 48.496 119.669 49.211 119.669 50.524C119.669 51.837 118.135 52.539 115.574 52.539ZM112.649 57.817V59H119.851V59.832H111.609V57.037H118.447V55.997H111.57V55.191H119.5V57.817H112.649ZM110.296 53.332H120.852V54.19H110.296V53.332ZM125.851 49.445H131.207V57.024H125.851V49.445ZM130.167 50.303H126.891V56.179H130.167V50.303ZM133.651 48.301H134.717V59.988H133.651V48.301ZM141.424 51.174V52.071C141.424 54.021 142.75 55.919 144.479 56.673L143.894 57.505C142.555 56.894 141.45 55.633 140.917 54.099C140.397 55.724 139.292 57.05 137.953 57.7L137.355 56.894C139.084 56.075 140.371 54.112 140.371 52.071V51.174H137.667V50.316H140.358V48.509H141.437V50.316H144.089V51.174H141.424ZM145.61 48.288H146.689V59.949H145.61V48.288ZM153.253 50.381V51.863C153.253 53.839 154.657 55.854 156.373 56.582L155.775 57.44C154.423 56.816 153.279 55.477 152.72 53.878C152.187 55.581 151.043 57.05 149.717 57.726L149.093 56.868C150.77 56.075 152.187 53.878 152.187 51.863V50.381H149.483V49.497H155.996V50.381H153.253ZM157.569 48.314H158.635V59.962H157.569V48.314ZM165.221 51.655C165.221 52.721 166.066 53.475 167.197 53.475C168.315 53.475 169.16 52.721 169.16 51.655C169.16 50.589 168.315 49.835 167.197 49.835C166.066 49.835 165.221 50.589 165.221 51.655ZM170.2 51.655C170.2 53.241 168.926 54.346 167.197 54.346C165.455 54.346 164.181 53.241 164.181 51.655C164.181 50.069 165.455 48.964 167.197 48.964C168.926 48.964 170.2 50.069 170.2 51.655ZM166.222 55.373V58.779C166.898 58.753 167.756 58.649 168.562 58.389L168.731 59.234C167.626 59.598 166.534 59.663 165.741 59.663H165.182V55.373H166.222ZM171.24 59.195C171.942 59.195 172.449 58.831 172.449 58.298C172.449 57.765 171.942 57.414 171.24 57.414C170.525 57.414 170.031 57.765 170.031 58.298C170.031 58.831 170.525 59.195 171.24 59.195ZM171.24 56.66C172.501 56.66 173.398 57.297 173.398 58.298C173.398 59.312 172.501 59.949 171.24 59.949C169.979 59.949 169.082 59.312 169.082 58.298C169.082 57.297 169.979 56.66 171.24 56.66ZM171.76 54.398V55.451H174.165V56.244H168.302V55.451H170.72V54.398H171.76ZM173.008 50.914H174.737V51.798H173.008V54.112H171.942V48.301H173.008V50.914ZM185.863 51.941L185.473 52.799C183.666 52.513 181.937 51.603 181.196 50.303C180.468 51.603 178.726 52.513 176.906 52.799L176.516 51.941C178.609 51.681 180.65 50.433 180.65 48.951V48.431H181.742V48.951C181.742 50.394 183.796 51.681 185.863 51.941ZM184.03 58.948V57.466H178.297V58.948H184.03ZM184.03 56.647V55.282H185.083V59.806H177.244V55.282H178.297V56.647H184.03ZM175.905 53.618H186.461V54.476H175.905V53.618ZM189.671 49.432V56.036C191.426 56.036 193.233 55.88 195.17 55.49L195.287 56.4C193.259 56.816 191.426 56.946 189.567 56.946H188.605V49.432H189.671ZM196.366 48.301H197.432V59.949H196.366V48.301ZM201.396 50.303V56.166C203.463 56.166 204.958 56.075 206.648 55.776L206.765 56.66C204.984 56.998 203.45 57.076 201.253 57.076H200.33V49.419H205.751V50.303H201.396ZM210.73 52.903V53.787H208.806V59.988H207.74V48.301H208.806V52.903H210.73ZM212.913 59.169C212.445 59.169 212.055 58.805 212.055 58.272C212.055 57.726 212.445 57.349 212.913 57.349C213.381 57.349 213.771 57.726 213.771 58.272C213.771 58.805 213.381 59.169 212.913 59.169Z" fill="white"/>
</svg>
