<svg width="14" height="14" viewBox="0 0 14 14" fill="none" xmlns="http://www.w3.org/2000/svg">
<g id="refresh 1" clip-path="url(#clip0_62_3693)">
<path id="Vector" d="M7.00001 1.74404C8.39238 1.74873 9.72626 2.30451 10.71 3.28988L9.32518 4.67471H12.726C12.9033 4.67471 13.0733 4.60428 13.1987 4.47891C13.3241 4.35354 13.3945 4.18351 13.3945 4.00621V0.605377L11.9414 2.05846C10.9647 1.07714 9.71851 0.40807 8.36094 0.136127C7.00336 -0.135815 5.5956 0.00163037 4.31627 0.531026C3.03693 1.06042 1.94368 1.95791 1.17522 3.10961C0.406758 4.26132 -0.002277 5.61534 9.53421e-06 6.99988H1.74418C1.74572 5.60642 2.29995 4.27047 3.28528 3.28515C4.27061 2.29982 5.60655 1.74559 7.00001 1.74404Z" fill="black" fill-opacity="0.7"/>
<path id="Vector_2" d="M12.2558 7C12.2577 8.03963 11.9507 9.05639 11.3738 9.92125C10.7968 10.7861 9.97596 11.46 9.01532 11.8576C8.05468 12.2551 6.9976 12.3582 5.97825 12.1539C4.95889 11.9496 4.02321 11.447 3.28997 10.71L4.6748 9.32517H1.16255C1.01485 9.32532 0.873245 9.38406 0.768805 9.4885C0.664365 9.59294 0.605623 9.73455 0.605469 9.88225V13.3945L2.05855 11.9414C3.03527 12.9227 4.28147 13.5918 5.63904 13.8637C6.99662 14.1357 8.40438 13.9982 9.68371 13.4689C10.963 12.9395 12.0563 12.042 12.8248 10.8903C13.5932 9.73856 14.0023 8.38454 14 7H12.2558Z" fill="black" fill-opacity="0.7"/>
</g>
<defs>
<clipPath id="clip0_62_3693">
<rect width="14" height="14" fill="white"/>
</clipPath>
</defs>
</svg>
