<svg width="10" height="10" viewBox="0 0 10 10" fill="none" xmlns="http://www.w3.org/2000/svg">
<g id="refresh 1" clip-path="url(#clip0_64_5774)">
<path id="Vector" d="M5.00001 1.24575C5.99456 1.24909 6.94733 1.64608 7.65001 2.34991L6.66084 3.33908H9.09001C9.21665 3.33908 9.3381 3.28877 9.42765 3.19922C9.5172 3.10967 9.56751 2.98822 9.56751 2.86158V0.432412L8.52959 1.47033C7.83194 0.769388 6.94179 0.291479 5.9721 0.0972339C5.0024 -0.0970108 3.99686 0.00116455 3.08305 0.379304C2.16924 0.757444 1.38834 1.3985 0.839442 2.22115C0.290542 3.0438 -0.00162643 4.01095 6.81015e-06 4.99991H1.24584C1.24694 4.00458 1.64282 3.05034 2.34663 2.34653C3.05043 1.64273 4.00468 1.24685 5.00001 1.24575Z" fill="#567BFF"/>
<path id="Vector_2" d="M8.75428 5C8.75566 5.74259 8.53638 6.46885 8.12427 7.0866C7.71217 7.70436 7.12582 8.18575 6.43965 8.46968C5.75348 8.75361 4.99843 8.82728 4.27031 8.68134C3.5422 8.53541 2.87386 8.17644 2.35012 7.65L3.33928 6.66083H0.830534C0.725034 6.66094 0.623886 6.7029 0.549286 6.7775C0.474686 6.8521 0.432727 6.95325 0.432617 7.05875V9.5675L1.47053 8.52958C2.16819 9.23052 3.05833 9.70843 4.02803 9.90268C4.99772 10.0969 6.00326 9.99875 6.91708 9.62061C7.83089 9.24247 8.61178 8.60141 9.16068 7.77876C9.70958 6.95611 10.0017 5.98896 10.0001 5H8.75428Z" fill="#567BFF"/>
</g>
<defs>
<clipPath id="clip0_64_5774">
<rect width="10" height="10" fill="white"/>
</clipPath>
</defs>
</svg>
