<svg width="1000" height="250" viewBox="0 0 1000 250" fill="none" xmlns="http://www.w3.org/2000/svg">
<g clip-path="url(#clip0_84_4063)">
<rect width="1000" height="728" fill="white"/>
<rect width="1000" height="250" fill="#F1F3F9"/>
<path d="M57.332 45.112V48.612H41.596V45.112H47.196V42.536H51.732V45.112H57.332ZM49.492 52.756C48.064 52.756 47.112 53.26 47.112 54.352C47.112 55.472 48.064 55.976 49.492 55.976C50.892 55.976 51.844 55.472 51.844 54.352C51.844 53.26 50.892 52.756 49.492 52.756ZM51.704 59.084V60.792C53.664 60.68 55.624 60.512 57.5 60.288L57.836 63.508C52.152 64.6 46.188 64.628 41.624 64.628L41.092 61.016C42.94 61.016 45.04 61.016 47.196 60.96V59.084C44.536 58.44 42.8 56.676 42.8 54.352C42.8 51.412 45.572 49.368 49.492 49.368C53.384 49.368 56.156 51.412 56.156 54.352C56.156 56.676 54.392 58.468 51.704 59.084ZM58.676 42.396H63.212V68.632H58.676V42.396ZM76.9018 44.3V47.604C76.9018 52.392 78.1618 57.152 82.6418 59.336L79.9258 62.92C77.3218 61.604 75.6418 59.364 74.6058 56.592C73.5138 59.588 71.6378 62.052 68.8098 63.396L66.1218 59.728C70.8538 57.572 72.3378 52.56 72.3378 47.604V44.3H76.9018ZM91.0698 52.224V55.92H87.5418V68.66H83.0058V42.396H87.5418V52.224H91.0698ZM100.378 43.768H112.474C112.474 50.908 108.414 55.668 100.658 57.768L98.8941 54.24C104.242 52.84 107.014 50.348 107.602 47.324H100.378V43.768ZM108.022 61.464V64.88H116.646V61.464H108.022ZM103.57 68.38V57.964H121.098V68.38H103.57ZM116.562 42.368H121.098V56.928H116.562V51.944H112.67V48.332H116.562V42.368ZM128.852 62.892V59.364H147.192V68.688H142.656V62.892H128.852ZM142.908 42.368H147.192V58.384H142.908V52.112H141.592V58.244H137.392V54.52L135.544 57.124C133.528 56.312 132.128 54.884 131.204 53.148C130.252 55.22 128.74 56.9 126.444 57.88L124.092 54.38C127.844 52.7 128.936 49.564 128.936 46.568V43.796H133.332V46.568C133.332 49.256 134.284 51.916 137.392 53.456V42.76H141.592V48.528H142.908V42.368ZM157.914 59.896C159.398 59.896 160.406 58.972 160.406 57.152C160.406 55.332 159.398 54.408 157.914 54.408C156.458 54.408 155.422 55.332 155.422 57.152C155.422 58.972 156.458 59.896 157.914 59.896ZM157.914 50.768C161.806 50.768 164.718 53.428 164.718 57.152C164.718 60.876 161.806 63.536 157.914 63.536C154.022 63.536 151.11 60.876 151.11 57.152C151.11 53.428 154.022 50.768 157.914 50.768ZM160.182 42.872V46.092H165.502V49.648H150.298V46.092H155.646V42.872H160.182ZM174.742 52.364V56.06H171.27V68.632H166.734V42.396H171.27V52.364H174.742ZM177.624 45.028H190.42C190.42 53.316 188.096 59.84 178.464 64.432L176.111 60.904C182.636 57.768 185.212 54.1 185.8 48.584H177.624V45.028ZM193.724 42.368H198.26V68.604H193.724V42.368Z" fill="#1D45D2"/>
<path d="M946.793 63.207C946.865 63.2796 946.951 63.3372 947.046 63.3766C947.141 63.4159 947.243 63.4361 947.345 63.4361C947.448 63.4361 947.55 63.4159 947.645 63.3766C947.739 63.3372 947.826 63.2796 947.898 63.207L957.5 53.6054L967.105 63.207C967.252 63.3536 967.451 63.4359 967.658 63.4359C967.865 63.4359 968.064 63.3536 968.211 63.207C968.357 63.0604 968.44 62.8616 968.44 62.6542C968.44 62.4469 968.357 62.2481 968.211 62.1015L958.605 52.4999L968.207 42.8945C968.353 42.7479 968.436 42.5491 968.436 42.3417C968.436 42.1344 968.353 41.9356 968.207 41.789C968.06 41.6424 967.861 41.5601 967.654 41.5601C967.447 41.5601 967.248 41.6424 967.101 41.789L957.5 51.3945L947.894 41.7929C947.745 41.6649 947.552 41.598 947.356 41.6056C947.159 41.6132 946.973 41.6947 946.834 41.8339C946.694 41.973 946.613 42.1595 946.605 42.3562C946.598 42.5528 946.665 42.745 946.793 42.8945L956.394 52.4999L946.793 62.1054C946.647 62.2518 946.565 62.4498 946.565 62.6562C946.565 62.8626 946.647 63.0606 946.793 63.207Z" fill="black" fill-opacity="0.4"/>
<rect x="820" y="164" width="148" height="44" rx="10" fill="#2F5DFF"/>
<path d="M881.281 181.27H887.581C887.581 184.915 885.331 187.405 881.311 188.515L880.531 186.985C883.501 186.175 885.166 184.675 885.481 182.845H881.281V181.27ZM884.881 190.315V192.58H890.071V190.315H884.881ZM882.931 194.125V188.755H892.021V194.125H882.931ZM890.041 180.49H892.021V188.185H890.041V185.35H887.656V183.745H890.041V180.49ZM901.98 186.655L900.93 188.155C899.775 187.675 898.98 186.85 898.5 185.83C897.99 187 897.15 187.975 895.875 188.53L894.825 186.985C896.76 186.13 897.51 184.42 897.51 182.845V181.24H899.415V182.845C899.415 184.375 900.15 185.89 901.98 186.655ZM897.285 191.035V189.475H906.795V194.305H904.815V191.035H897.285ZM904.92 180.475H906.795V188.86H904.92V185.425H903.84V188.785H901.995V180.685H903.84V183.835H904.92V180.475Z" fill="white"/>
<rect x="40.5" y="164.5" width="179" height="45" rx="9.5" fill="white"/>
<path d="M93.9923 182.11H100.292C100.292 185.995 98.5073 189.415 94.0373 191.605L93.3773 190.6C96.9923 188.875 98.7923 186.295 99.0473 183.1H93.9923V182.11ZM103.007 180.655H104.237V194.11H103.007V180.655ZM116.851 192.94V191.2H110.686V192.94H116.851ZM116.851 190.24V188.53H118.081V193.93H109.471V188.53H110.686V190.24H116.851ZM110.671 186.49C112.006 186.49 112.966 185.62 112.966 184.39C112.966 183.16 112.006 182.305 110.671 182.305C109.336 182.305 108.376 183.16 108.376 184.39C108.376 185.62 109.336 186.49 110.671 186.49ZM116.836 180.67H118.081V187.885H116.836V184.87H114.106C113.866 186.46 112.516 187.51 110.671 187.51C108.661 187.51 107.206 186.25 107.206 184.39C107.206 182.545 108.661 181.285 110.671 181.285C112.486 181.285 113.836 182.305 114.091 183.865H116.836V180.67ZM126.855 182.185C124.815 182.185 123.42 182.935 123.42 184.12C123.42 185.305 124.815 186.07 126.855 186.07C128.91 186.07 130.305 185.305 130.305 184.12C130.305 182.935 128.91 182.185 126.855 182.185ZM126.855 187.06C124.065 187.06 122.16 185.92 122.16 184.12C122.16 182.32 124.065 181.195 126.855 181.195C129.66 181.195 131.565 182.32 131.565 184.12C131.565 185.92 129.66 187.06 126.855 187.06ZM132.975 188.32V189.325H129.795V194.11H128.55V189.325H125.175V194.11H123.93V189.325H120.795V188.32H132.975ZM144.434 186.505V184.885H142.169V183.895H144.434V180.655H145.679V189.34H144.434V187.51H142.154V186.505H144.434ZM142.154 182.14V183.13H134.624V182.14H137.834V180.535H139.064V182.14H142.154ZM136.544 186.31C136.544 187.255 137.309 187.87 138.434 187.87C139.559 187.87 140.324 187.255 140.324 186.31C140.324 185.38 139.559 184.765 138.434 184.765C137.309 184.765 136.544 185.38 136.544 186.31ZM141.479 186.31C141.479 187.825 140.219 188.815 138.434 188.815C136.634 188.815 135.389 187.825 135.389 186.31C135.389 184.81 136.634 183.82 138.434 183.82C140.219 183.82 141.479 184.81 141.479 186.31ZM141.269 193.15C143.249 193.15 144.464 192.655 144.464 191.8C144.464 190.93 143.249 190.45 141.269 190.45C139.289 190.45 138.059 190.93 138.059 191.8C138.059 192.655 139.289 193.15 141.269 193.15ZM141.269 189.505C144.044 189.505 145.739 190.33 145.739 191.8C145.739 193.255 144.044 194.095 141.269 194.095C138.479 194.095 136.784 193.255 136.784 191.8C136.784 190.33 138.479 189.505 141.269 189.505Z" fill="black" fill-opacity="0.5"/>
<path d="M199.222 190.038C199.623 190.533 200.378 190.533 200.778 190.038L204.746 185.129C205.275 184.475 204.809 183.5 203.968 183.5H196.032C195.191 183.5 194.726 184.475 195.254 185.129L199.222 190.038Z" fill="#567BFF"/>
<rect x="40.5" y="164.5" width="179" height="45" rx="9.5" stroke="#DCDFEA"/>
<rect x="235.5" y="164.5" width="179" height="45" rx="9.5" fill="white"/>
<path d="M296.042 187.42L295.427 188.395C293.912 187.84 292.742 186.715 292.142 185.305C291.587 186.895 290.387 188.125 288.782 188.725L288.137 187.75C290.192 187.015 291.497 185.215 291.497 183.13V181.465H292.727V183.16C292.727 185.005 294.062 186.715 296.042 187.42ZM291.527 189.64V192.805H299.222V193.81H290.297V189.64H291.527ZM298.637 184.78H300.617V185.8H298.637V190.585H297.407V180.64H298.637V184.78ZM311.851 192.94V191.2H305.686V192.94H311.851ZM311.851 190.24V188.53H313.081V193.93H304.471V188.53H305.686V190.24H311.851ZM305.671 186.49C307.006 186.49 307.966 185.62 307.966 184.39C307.966 183.16 307.006 182.305 305.671 182.305C304.336 182.305 303.376 183.16 303.376 184.39C303.376 185.62 304.336 186.49 305.671 186.49ZM311.836 180.67H313.081V187.885H311.836V184.87H309.106C308.866 186.46 307.516 187.51 305.671 187.51C303.661 187.51 302.206 186.25 302.206 184.39C302.206 182.545 303.661 181.285 305.671 181.285C307.486 181.285 308.836 182.305 309.091 183.865H311.836V180.67ZM325.155 185.485V183.745H318.615V185.485H325.155ZM326.37 181.075V186.46H317.4V181.075H318.615V182.8H325.155V181.075H326.37ZM318.54 190.15V192.805H326.625V193.81H317.325V190.15H318.54ZM315.765 187.765H327.99V188.755H322.59V191.365H321.36V188.755H315.765V187.765ZM339.074 183.715V182.17H331.034V181.18H340.319V184.645H332.309V186.295H340.619V187.285H331.079V183.715H339.074ZM341.789 188.68V189.67H338.609V194.125H337.379V189.67H333.989V194.125H332.759V189.67H329.579V188.68H341.789Z" fill="black" fill-opacity="0.5"/>
<path d="M394.222 190.038C394.623 190.533 395.378 190.533 395.778 190.038L399.746 185.129C400.275 184.475 399.809 183.5 398.968 183.5H391.032C390.191 183.5 389.726 184.475 390.254 185.129L394.222 190.038Z" fill="#567BFF"/>
<rect x="235.5" y="164.5" width="179" height="45" rx="9.5" stroke="#DCDFEA"/>
<rect x="430.5" y="164.5" width="179" height="45" rx="9.5" fill="white"/>
<path d="M483.992 182.11H490.292C490.292 185.995 488.507 189.415 484.037 191.605L483.377 190.6C486.992 188.875 488.792 186.295 489.047 183.1H483.992V182.11ZM493.007 180.655H494.237V194.11H493.007V180.655ZM506.851 192.94V191.2H500.686V192.94H506.851ZM506.851 190.24V188.53H508.081V193.93H499.471V188.53H500.686V190.24H506.851ZM500.671 186.49C502.006 186.49 502.966 185.62 502.966 184.39C502.966 183.16 502.006 182.305 500.671 182.305C499.336 182.305 498.376 183.16 498.376 184.39C498.376 185.62 499.336 186.49 500.671 186.49ZM506.836 180.67H508.081V187.885H506.836V184.87H504.106C503.866 186.46 502.516 187.51 500.671 187.51C498.661 187.51 497.206 186.25 497.206 184.39C497.206 182.545 498.661 181.285 500.671 181.285C502.486 181.285 503.836 182.305 504.091 183.865H506.836V180.67ZM522.96 187.39V188.395H519.75V194.095H518.535V188.395H515.16V194.095H513.93V188.395H510.81V187.39H519.66C520.08 185.26 520.08 183.73 520.08 182.53H512.34V181.51H521.295V182.515C521.295 183.73 521.295 185.26 520.89 187.39H522.96ZM527.219 182.755V187.12H534.104V182.755H527.219ZM531.299 191.365H536.789V192.385H524.594V191.365H530.054V188.095H526.034V181.78H535.304V188.095H531.299V191.365Z" fill="black" fill-opacity="0.5"/>
<path d="M589.222 190.038C589.623 190.533 590.378 190.533 590.778 190.038L594.746 185.129C595.275 184.475 594.809 183.5 593.968 183.5H586.032C585.191 183.5 584.726 184.475 585.254 185.129L589.222 190.038Z" fill="#567BFF"/>
<rect x="430.5" y="164.5" width="179" height="45" rx="9.5" stroke="#DCDFEA"/>
<rect x="625.5" y="164.5" width="179" height="45" rx="9.5" fill="white"/>
<path d="M678.992 182.11H685.292C685.292 185.995 683.507 189.415 679.037 191.605L678.377 190.6C681.992 188.875 683.792 186.295 684.047 183.1H678.992V182.11ZM688.007 180.655H689.237V194.11H688.007V180.655ZM701.851 192.94V191.2H695.686V192.94H701.851ZM701.851 190.24V188.53H703.081V193.93H694.471V188.53H695.686V190.24H701.851ZM695.671 186.49C697.006 186.49 697.966 185.62 697.966 184.39C697.966 183.16 697.006 182.305 695.671 182.305C694.336 182.305 693.376 183.16 693.376 184.39C693.376 185.62 694.336 186.49 695.671 186.49ZM701.836 180.67H703.081V187.885H701.836V184.87H699.106C698.866 186.46 697.516 187.51 695.671 187.51C693.661 187.51 692.206 186.25 692.206 184.39C692.206 182.545 693.661 181.285 695.671 181.285C697.486 181.285 698.836 182.305 699.091 183.865H701.836V180.67ZM710.595 183.055V184.765C710.595 187.045 712.215 189.37 714.195 190.21L713.505 191.2C711.945 190.48 710.625 188.935 709.98 187.09C709.365 189.055 708.045 190.75 706.515 191.53L705.795 190.54C707.73 189.625 709.365 187.09 709.365 184.765V183.055H706.245V182.035H713.76V183.055H710.595ZM715.575 180.67H716.805V194.11H715.575V180.67ZM721.679 190.33V189.325H730.679V194.125H729.434V190.33H721.679ZM726.569 185.65H729.434V183.625H726.569C726.659 183.94 726.719 184.27 726.719 184.63C726.719 185.005 726.659 185.335 726.569 185.65ZM723.254 186.835C724.574 186.835 725.549 185.92 725.549 184.63C725.549 183.37 724.574 182.455 723.254 182.455C721.949 182.455 720.974 183.37 720.974 184.63C720.974 185.92 721.949 186.835 723.254 186.835ZM729.434 180.67L730.679 180.655V188.59H729.434V186.655H726.029C725.399 187.42 724.424 187.885 723.254 187.885C721.274 187.885 719.804 186.535 719.804 184.63C719.804 182.74 721.274 181.405 723.254 181.405C724.424 181.405 725.414 181.87 726.044 182.635H729.434V180.67Z" fill="black" fill-opacity="0.5"/>
<path d="M784.222 190.038C784.623 190.533 785.378 190.533 785.778 190.038L789.746 185.129C790.275 184.475 789.809 183.5 788.968 183.5H781.032C780.191 183.5 779.726 184.475 780.254 185.129L784.222 190.038Z" fill="#567BFF"/>
<rect x="625.5" y="164.5" width="179" height="45" rx="9.5" stroke="#DCDFEA"/>
</g>
<defs>
<clipPath id="clip0_84_4063">
<rect width="1000" height="250" rx="10" fill="white"/>
</clipPath>
</defs>
</svg>
