<svg width="170" height="53" viewBox="0 0 170 53" fill="none" xmlns="http://www.w3.org/2000/svg">
<rect x="0.5" y="0.5" width="169" height="52" fill="white" stroke="#2F5DFF"/>
<rect x="0.5" y="0.5" width="169" height="52" fill="#2F5DFF" fill-opacity="0.2" stroke="#2F5DFF"/>
<path d="M37.6563 24.2772L35.7063 24.0822C36.0213 22.8522 36.0663 21.9222 36.0663 21.0072H28.4763V19.4472H38.0463V20.5872C38.0463 21.6822 38.0463 22.8522 37.6563 24.2772ZM33.2163 31.1622C35.0913 31.1622 36.1563 30.7872 36.1563 30.0522C36.1563 29.3022 35.0913 28.9272 33.2163 28.9272C31.3563 28.9272 30.2913 29.3022 30.2913 30.0522C30.2913 30.7872 31.3563 31.1622 33.2163 31.1622ZM33.2163 27.4422C36.2013 27.4422 38.1213 28.4322 38.1213 30.0522C38.1213 31.6572 36.2013 32.6472 33.2163 32.6472C30.2463 32.6472 28.3263 31.6572 28.3263 30.0522C28.3263 28.4322 30.2463 27.4422 33.2163 27.4422ZM33.6663 25.0122H39.5163V26.5722H27.0813V25.0122H31.6863V22.5972H33.6663V25.0122ZM51.4551 24.2772L49.5051 24.0822C49.8201 22.8522 49.8651 21.9222 49.8651 21.0072H42.2751V19.4472H51.8451V20.5872C51.8451 21.6822 51.8451 22.8522 51.4551 24.2772ZM47.0151 31.1622C48.8901 31.1622 49.9551 30.7872 49.9551 30.0522C49.9551 29.3022 48.8901 28.9272 47.0151 28.9272C45.1551 28.9272 44.0901 29.3022 44.0901 30.0522C44.0901 30.7872 45.1551 31.1622 47.0151 31.1622ZM47.0151 27.4422C50.0001 27.4422 51.9201 28.4322 51.9201 30.0522C51.9201 31.6572 50.0001 32.6472 47.0151 32.6472C44.0451 32.6472 42.1251 31.6572 42.1251 30.0522C42.1251 28.4322 44.0451 27.4422 47.0151 27.4422ZM47.4651 25.0122H53.3151V26.5722H40.8801V25.0122H45.4851V22.5972H47.4651V25.0122ZM55.4139 20.2572H62.0439C62.0439 24.4872 60.6189 27.9372 55.7139 30.3072L54.6789 28.7472C58.2039 27.0522 59.7339 24.8922 60.0189 21.8322H55.4139V20.2572ZM64.1589 18.8172H66.1539V32.6322H64.1589V18.8172ZM75.8277 24.7572L73.8927 24.5322C74.1177 23.2422 74.1777 22.2372 74.1927 21.4122H69.0477V19.8372H76.1427V20.6922C76.1427 21.6522 76.1427 23.0172 75.8277 24.7572ZM76.7427 25.3122L76.8627 26.7222C74.0127 27.2472 70.8027 27.3072 68.4327 27.3222L68.2527 25.7472C69.0177 25.7472 69.8727 25.7472 70.7727 25.7322V23.0472H72.7077V25.6572C74.0727 25.5972 75.4527 25.4922 76.7427 25.3122ZM72.2427 28.2522V30.8322H79.9077V32.4072H70.2627V28.2522H72.2427ZM79.4727 23.0322H81.1227V24.6672H79.4727V29.1672H77.4927V18.8172H79.4727V23.0322ZM97.105 18.8472V26.6772H95.125V18.8472H97.105ZM91.105 23.9622V21.2172H88.285V23.9622H91.105ZM93.04 19.6572V25.5072H86.335V19.6572H93.04ZM97.33 28.8822H93.52C93.73 29.7972 95.11 30.9072 97.84 31.1322L97.21 32.6022C94.915 32.4072 93.31 31.5822 92.47 30.5322C91.63 31.5972 90.01 32.4072 87.685 32.6022L87.07 31.1322C89.83 30.8922 91.21 29.8422 91.42 28.8822H87.595V27.4122H91.465V26.2872H93.475V27.4122H97.33V28.8822ZM113.447 24.2772L111.497 24.0822C111.812 22.8522 111.857 21.9222 111.857 21.0072H104.267V19.4472H113.837V20.5872C113.837 21.6822 113.837 22.8522 113.447 24.2772ZM109.007 31.1622C110.882 31.1622 111.947 30.7872 111.947 30.0522C111.947 29.3022 110.882 28.9272 109.007 28.9272C107.147 28.9272 106.082 29.3022 106.082 30.0522C106.082 30.7872 107.147 31.1622 109.007 31.1622ZM109.007 27.4422C111.992 27.4422 113.912 28.4322 113.912 30.0522C113.912 31.6572 111.992 32.6472 109.007 32.6472C106.037 32.6472 104.117 31.6572 104.117 30.0522C104.117 28.4322 106.037 27.4422 109.007 27.4422ZM109.457 25.0122H115.307V26.5722H102.872V25.0122H107.477V22.5972H109.457V25.0122ZM117.406 20.2572H124.036C124.036 24.4872 122.611 27.9372 117.706 30.3072L116.671 28.7472C120.196 27.0522 121.726 24.8922 122.011 21.8322H117.406V20.2572ZM126.151 18.8172H128.146V32.6322H126.151V18.8172ZM140.025 30.9072V29.6772H134.805V30.9072H140.025ZM140.025 28.1772V26.8572H141.99V32.4822H132.84V26.8572H134.805V28.1772H140.025ZM134.25 24.3522C135.27 24.3522 136.005 23.7372 136.005 22.7022C136.005 21.6672 135.27 21.0522 134.25 21.0522C133.245 21.0522 132.51 21.6672 132.51 22.7022C132.51 23.7372 133.245 24.3522 134.25 24.3522ZM140.01 18.8322H141.99V26.2572H140.01V23.4822H137.82C137.445 24.9822 136.035 26.0022 134.25 26.0022C132.18 26.0022 130.62 24.6222 130.62 22.7022C130.62 20.7822 132.18 19.4022 134.25 19.4022C136.005 19.4022 137.415 20.4072 137.805 21.8772H140.01V18.8322Z" fill="#413EFF"/>
</svg>
