<svg width="170" height="54" viewBox="0 0 170 54" fill="none" xmlns="http://www.w3.org/2000/svg">
<rect x="0.5" y="0.5" width="169" height="53" fill="#F1F3F9" stroke="#DCDFEA"/>
<path d="M66.7918 22.8665V29.3465C68.5918 29.3315 69.8668 29.2565 71.3368 28.9415L71.4418 29.9615C69.8368 30.3065 68.4718 30.3665 66.4618 30.3665H65.5768V21.8615H70.5868V22.8665H66.7918ZM75.3418 20.2265H76.5268V33.6815H75.3418V26.6315H73.4368V33.0065H72.2818V20.5265H73.4368V25.6265H75.3418V20.2265ZM79.6906 21.6815H85.9906C85.9906 25.5665 84.2056 28.9865 79.7356 31.1765L79.0756 30.1715C82.6906 28.4465 84.4906 25.8665 84.7456 22.6715H79.6906V21.6815ZM88.7056 20.2265H89.9356V33.6815H88.7056V20.2265ZM102.549 32.5115V30.7715H96.3844V32.5115H102.549ZM102.549 29.8115V28.1015H103.779V33.5015H95.1694V28.1015H96.3844V29.8115H102.549ZM96.3694 26.0615C97.7044 26.0615 98.6644 25.1915 98.6644 23.9615C98.6644 22.7315 97.7044 21.8765 96.3694 21.8765C95.0344 21.8765 94.0744 22.7315 94.0744 23.9615C94.0744 25.1915 95.0344 26.0615 96.3694 26.0615ZM102.534 20.2415H103.779V27.4565H102.534V24.4415H99.8044C99.5644 26.0315 98.2144 27.0815 96.3694 27.0815C94.3594 27.0815 92.9044 25.8215 92.9044 23.9615C92.9044 22.1165 94.3594 20.8565 96.3694 20.8565C98.1844 20.8565 99.5344 21.8765 99.7894 23.4365H102.534V20.2415Z" fill="black" fill-opacity="0.8"/>
</svg>
