<svg width="170" height="54" viewBox="0 0 170 54" fill="none" xmlns="http://www.w3.org/2000/svg">
<rect x="0.5" y="0.5" width="169" height="53" fill="#F1F3F9" stroke="#DCDFEA"/>
<path d="M59.3223 25.7165L58.8873 24.7415C61.2423 24.4715 63.3873 23.3165 63.4923 21.8315H59.3223V20.8415H69.2673V21.8315H65.0823C65.1873 23.3165 67.3323 24.4715 69.6873 24.7415L69.2523 25.7165C67.0473 25.4465 65.0373 24.4565 64.2873 22.9715C63.5523 24.4565 61.5273 25.4465 59.3223 25.7165ZM67.6323 31.2965C67.6323 30.3965 66.3723 29.8865 64.2723 29.8865C62.1573 29.8865 60.9123 30.3965 60.9123 31.2965C60.9123 32.1965 62.1573 32.7215 64.2723 32.7215C66.3723 32.7215 67.6323 32.1965 67.6323 31.2965ZM70.3623 27.5165H64.9023V28.9565C67.4073 29.0765 68.8773 29.9015 68.8773 31.2965C68.8773 32.8265 67.1523 33.6665 64.2873 33.6665C61.4073 33.6665 59.6673 32.8265 59.6673 31.2965C59.6673 29.9015 61.1523 29.0765 63.6573 28.9565V27.5165H58.1973V26.5265H70.3623V27.5165ZM83.6062 26.7965L83.0812 27.8165C81.0262 27.3815 78.9112 25.9865 78.0412 24.0665C77.1712 25.9865 75.0712 27.3815 73.0012 27.8165L72.4912 26.7965C74.8462 26.3765 77.3962 24.3965 77.3962 22.1615V21.1265H78.6862V22.1615C78.6862 24.3965 81.2512 26.3765 83.6062 26.7965ZM78.6562 30.9215H84.2062V31.9265H71.9962V30.9215H77.4262V27.6515H78.6562V30.9215ZM86.59 21.6815H92.89C92.89 25.5665 91.105 28.9865 86.635 31.1765L85.975 30.1715C89.59 28.4465 91.39 25.8665 91.645 22.6715H86.59V21.6815ZM95.605 20.2265H96.835V33.6815H95.605V20.2265ZM109.449 32.5115V30.7715H103.284V32.5115H109.449ZM109.449 29.8115V28.1015H110.679V33.5015H102.069V28.1015H103.284V29.8115H109.449ZM103.269 26.0615C104.604 26.0615 105.564 25.1915 105.564 23.9615C105.564 22.7315 104.604 21.8765 103.269 21.8765C101.934 21.8765 100.974 22.7315 100.974 23.9615C100.974 25.1915 101.934 26.0615 103.269 26.0615ZM109.434 20.2415H110.679V27.4565H109.434V24.4415H106.704C106.464 26.0315 105.114 27.0815 103.269 27.0815C101.259 27.0815 99.8038 25.8215 99.8038 23.9615C99.8038 22.1165 101.259 20.8565 103.269 20.8565C105.084 20.8565 106.434 21.8765 106.689 23.4365H109.434V20.2415Z" fill="black" fill-opacity="0.8"/>
</svg>
