<svg width="170" height="54" viewBox="0 0 170 54" fill="none" xmlns="http://www.w3.org/2000/svg">
<rect x="0.5" y="0.5" width="169" height="53" fill="#F1F3F9" stroke="#DCDFEA"/>
<path d="M72.7912 21.6815H79.0912C79.0912 25.5665 77.3062 28.9865 72.8362 31.1765L72.1762 30.1715C75.7912 28.4465 77.5912 25.8665 77.8462 22.6715H72.7912V21.6815ZM81.8062 20.2265H83.0362V33.6815H81.8062V20.2265ZM87.61 26.2115V29.4365C89.995 29.4365 91.675 29.3315 93.655 29.0015L93.775 29.9915C91.705 30.3515 89.965 30.4415 87.43 30.4415H86.38V21.4415H92.65V22.4465H87.61V25.2215H92.35V26.2115H87.61ZM98.365 25.6265V26.6615H96.145V33.6665H94.915V20.2265H96.145V25.6265H98.365Z" fill="black" fill-opacity="0.8"/>
</svg>
