<svg width="170" height="53" viewBox="0 0 170 53" fill="none" xmlns="http://www.w3.org/2000/svg">
<rect x="0.5" y="0.5" width="169" height="52" fill="#F1F3F9" stroke="#DCDFEA"/>
<path d="M61.0779 19.0122H62.3079V32.4822H61.0779V19.0122ZM52.0629 20.1522H53.2779V23.7072H57.1779V20.1522H58.3929V29.2272H52.0629V20.1522ZM53.2779 24.6822V28.2222H57.1779V24.6822H53.2779ZM66.4768 23.0022C66.4768 24.2622 67.4668 25.1622 68.7718 25.1622C70.0918 25.1622 71.0518 24.2622 71.0518 23.0022C71.0518 21.7572 70.0918 20.8572 68.7718 20.8572C67.4668 20.8572 66.4768 21.7572 66.4768 23.0022ZM74.9368 21.9522H72.0568C72.1618 22.2672 72.2218 22.6122 72.2218 23.0022C72.2218 23.3772 72.1618 23.7222 72.0418 24.0522H74.9368V21.9522ZM74.9368 25.0572H71.4868C70.8718 25.7772 69.9118 26.2122 68.7718 26.2122C66.7768 26.2122 65.3068 24.8922 65.3068 23.0022C65.3068 21.1272 66.7768 19.8222 68.7718 19.8222C69.9118 19.8222 70.8718 20.2572 71.4868 20.9472H74.9368V19.0122H76.1818V26.9772H74.9368V25.0572ZM71.7268 31.4772C73.7818 31.4772 75.0118 30.8772 75.0118 29.8722C75.0118 28.8522 73.7818 28.2522 71.7268 28.2522C69.7018 28.2522 68.4718 28.8522 68.4718 29.8722C68.4718 30.8772 69.7018 31.4772 71.7268 31.4772ZM71.7268 27.2922C74.5018 27.2922 76.2268 28.2372 76.2268 29.8722C76.2268 31.5072 74.5018 32.4522 71.7268 32.4522C68.9668 32.4522 67.2568 31.5072 67.2568 29.8722C67.2568 28.2372 68.9668 27.2922 71.7268 27.2922ZM80.9056 25.0572V28.2072C83.1106 28.2072 85.0906 28.1022 87.4456 27.7272L87.5656 28.7322C85.1356 29.1372 83.0956 29.2272 80.7856 29.2272H79.6756V24.0672H84.6256V21.2622H79.6306V20.2572H85.8706V25.0572H80.9056ZM88.7056 18.9972H89.9356V32.4822H88.7056V18.9972ZM102.549 31.2822V29.6022H96.3694V31.2822H102.549ZM102.549 28.6422V27.0072H103.764V32.2722H95.1544V27.0072H96.3694V28.6422H102.549ZM98.2144 24.8622V22.7322H94.5844V24.8622H98.2144ZM102.534 19.0272H103.779V26.3772H102.534V23.3322H99.4294V25.8672H93.3694V19.7172H94.5844V21.7722H98.2144V19.7172H99.4294V22.3272H102.534V19.0272ZM117.533 19.0272V28.8522H116.303V19.0272H117.533ZM108.008 23.2572C108.008 24.5922 108.998 25.5222 110.303 25.5222C111.638 25.5222 112.628 24.5922 112.628 23.2572C112.628 21.9522 111.638 21.0222 110.303 21.0222C108.998 21.0222 108.008 21.9522 108.008 23.2572ZM113.828 23.2572C113.828 25.2072 112.313 26.5872 110.303 26.5872C108.308 26.5872 106.808 25.2072 106.808 23.2572C106.808 21.3222 108.308 19.9572 110.303 19.9572C112.313 19.9572 113.828 21.3222 113.828 23.2572ZM110.108 31.1622H117.938V32.1672H108.878V27.8472H110.108V31.1622Z" fill="black" fill-opacity="0.8"/>
</svg>
