<svg width="170" height="53" viewBox="0 0 170 53" fill="none" xmlns="http://www.w3.org/2000/svg">
<rect x="0.5" y="0.5" width="169" height="52" fill="white" stroke="#2F5DFF"/>
<rect x="0.5" y="0.5" width="169" height="52" fill="#2F5DFF" fill-opacity="0.2" stroke="#2F5DFF"/>
<path d="M59.2473 24.5622L58.5873 23.0322C61.1523 22.8072 62.5023 21.9072 62.8473 20.9772H59.1873V19.4022H69.4023V20.9772H65.7273C66.0723 21.9072 67.4223 22.8072 70.0023 23.0322L69.3123 24.5622C66.7173 24.3372 65.0223 23.3622 64.2873 22.0572C63.5523 23.3622 61.8573 24.3372 59.2473 24.5622ZM67.0473 30.1572C67.0473 29.4522 66.1023 29.1522 64.2573 29.1522C62.4123 29.1522 61.4673 29.4522 61.4673 30.1572C61.4673 30.8472 62.4123 31.1472 64.2573 31.1472C66.1023 31.1472 67.0473 30.8472 67.0473 30.1572ZM70.5273 26.6772H65.2773V27.6972C67.6473 27.8922 69.0573 28.7472 69.0573 30.1572C69.0573 31.7472 67.2423 32.6472 64.2573 32.6472C61.2723 32.6472 59.4723 31.7472 59.4723 30.1572C59.4723 28.7322 60.8973 27.8772 63.2973 27.6822V26.6772H58.0473V25.1022H70.5273V26.6772ZM81.4162 23.0622H78.5512C77.5912 25.1622 75.6112 26.7222 72.8512 27.5622L72.0262 26.0022C74.9512 25.1022 76.7662 23.4522 77.0812 21.4422H72.7612V19.8672H79.2262C79.2262 20.4372 79.1662 20.9772 79.0612 21.4872H81.4162V18.8322H83.3962V29.0022H81.4162V26.1672H78.3262V24.5772H81.4162V23.0622ZM76.3462 30.8322H83.7412V32.4072H74.3662V28.0122H76.3462V30.8322ZM86.41 20.2572H93.04C93.04 24.4872 91.615 27.9372 86.71 30.3072L85.675 28.7472C89.2 27.0522 90.73 24.8922 91.015 21.8322H86.41V20.2572ZM95.155 18.8172H97.15V32.6322H95.155V18.8172ZM109.029 30.9072V29.6772H103.809V30.9072H109.029ZM109.029 28.1772V26.8572H110.994V32.4822H101.844V26.8572H103.809V28.1772H109.029ZM103.254 24.3522C104.274 24.3522 105.009 23.7372 105.009 22.7022C105.009 21.6672 104.274 21.0522 103.254 21.0522C102.249 21.0522 101.514 21.6672 101.514 22.7022C101.514 23.7372 102.249 24.3522 103.254 24.3522ZM109.014 18.8322H110.994V26.2572H109.014V23.4822H106.824C106.449 24.9822 105.039 26.0022 103.254 26.0022C101.184 26.0022 99.6238 24.6222 99.6238 22.7022C99.6238 20.7822 101.184 19.4022 103.254 19.4022C105.009 19.4022 106.419 20.4072 106.809 21.8772H109.014V18.8322Z" fill="#413EFF"/>
</svg>
