<svg width="170" height="52" viewBox="0 0 170 52" fill="none" xmlns="http://www.w3.org/2000/svg">
<rect x="0.5" y="0.5" width="169" height="51" fill="#F1F3F9" stroke="#DCDFEA"/>
<path d="M32.5558 25.2478H27.0508V27.7078H31.0558V32.2378H29.8258V28.6978H21.6358V27.7078H25.8208V25.2478H20.3458V24.2428H29.4058C29.7658 22.6228 29.7658 21.4378 29.7658 20.4328H21.9058V19.4428H30.9808V20.4178C30.9808 21.4228 30.9808 22.6528 30.6508 24.2428H32.5558V25.2478ZM34.8646 20.2378H41.0146C41.0146 24.0628 39.2596 27.5278 34.9096 29.7028L34.2346 28.7428C37.6696 27.0178 39.5146 24.4378 39.7996 21.2578H34.8646V20.2378ZM46.6546 24.2578V25.2778H44.4946V32.2528H43.2646V18.7978H44.4946V24.2578H46.6546ZM62.3229 18.7978V26.5228H61.0929V18.7978H62.3229ZM57.0879 24.1828V20.6428H53.2029V24.1828H57.0879ZM58.2879 19.6678V25.1728H52.0029V19.6678H58.2879ZM62.6379 28.3828H58.7079C58.7229 29.6728 60.8079 30.9778 63.1179 31.2628L62.6979 32.2078C60.6729 31.9228 58.8729 30.9928 58.0779 29.7478C57.2679 31.0228 55.4079 31.9228 53.3829 32.2078L52.9779 31.2628C55.2729 30.9928 57.4179 29.7178 57.4329 28.3828H53.5029V27.4378H57.4479V26.1328H58.6929V27.4378H62.6379V28.3828ZM73.2513 21.1978V22.9078C73.2513 25.1878 74.8713 27.5128 76.8513 28.3528L76.1613 29.3428C74.6013 28.6228 73.2813 27.0778 72.6363 25.2328C72.0213 27.1978 70.7013 28.8928 69.1713 29.6728L68.4513 28.6828C70.3863 27.7678 72.0213 25.2328 72.0213 22.9078V21.1978H68.9013V20.1778H76.4163V21.1978H73.2513ZM78.2313 18.8128H79.4613V32.2528H78.2313V18.8128ZM87.8301 24.8578V22.6378H84.0201V24.8578H87.8301ZM89.0301 19.6528V25.8478H82.8051V19.6528H84.0201V21.6778H87.8301V19.6528H89.0301ZM88.4151 31.2778C90.3951 31.2778 91.6101 30.7078 91.6101 29.7478C91.6101 28.7878 90.3951 28.2328 88.4151 28.2328C86.4051 28.2328 85.2051 28.7878 85.2051 29.7478C85.2051 30.7078 86.4051 31.2778 88.4151 31.2778ZM88.4151 27.2428C91.1451 27.2428 92.8401 28.1578 92.8401 29.7478C92.8401 31.3378 91.1451 32.2528 88.4151 32.2528C85.6701 32.2528 83.9751 31.3378 83.9751 29.7478C83.9751 28.1578 85.6701 27.2428 88.4151 27.2428ZM92.6901 22.1878H94.6851V23.2078H92.6901V26.8978H91.4601V18.7978H92.6901V22.1878ZM100.579 21.1978V22.9078C100.579 25.0528 102.109 27.4378 104.059 28.3528L103.354 29.3428C101.854 28.5928 100.594 27.0178 99.9789 25.2178C99.3639 27.1828 98.0589 28.8928 96.5439 29.6728L95.8239 28.6978C97.7439 27.7378 99.3639 25.1878 99.3639 22.9078V21.1978H96.2889V20.1778H103.564V21.1978H100.579ZM108.619 24.2278V25.2628H106.399V32.2528H105.169V18.8128H106.399V24.2278H108.619ZM114.798 22.1128V23.1478C114.798 25.3978 116.328 27.5878 118.323 28.4578L117.648 29.4178C116.103 28.7128 114.828 27.2578 114.213 25.4878C113.613 27.3628 112.338 28.8928 110.793 29.6428L110.103 28.7128C112.098 27.7678 113.583 25.5028 113.583 23.1478V22.1128H110.463V21.1228H113.568V19.0378H114.813V21.1228H117.873V22.1128H114.798ZM119.628 18.7828H120.873V32.2378H119.628V18.7828ZM131.432 24.6928L131.567 25.6828C129.722 26.0578 128.132 26.1478 125.312 26.1478H124.262V19.9678H130.217V20.9578H125.492V25.1428C128.147 25.1428 129.677 25.0378 131.432 24.6928ZM126.947 27.5578V30.9478H134.687V31.9528H125.717V27.5578H126.947ZM134.087 22.7878H136.082V23.8078H134.087V28.5328H132.857V18.7978H134.087V22.7878ZM141.36 22.2928V22.9378C141.36 25.0828 142.44 27.3028 144.255 28.2778L143.55 29.2078C142.245 28.4728 141.285 27.1078 140.79 25.4878C140.325 27.1978 139.38 28.6978 138.06 29.4928L137.34 28.5778C139.155 27.4978 140.19 25.1428 140.19 22.9378V22.2928H137.7V21.2728H140.19V19.2778H141.375V21.2728H143.85V22.2928H141.36ZM144.99 24.1078V19.1128H146.16V31.5478H144.99V25.1278H142.935V24.1078H144.99ZM147.69 18.7978H148.875V32.2378H147.69V18.7978Z" fill="black" fill-opacity="0.8"/>
</svg>
