<svg width="22" height="22" viewBox="0 0 22 22" fill="none" xmlns="http://www.w3.org/2000/svg">
<g id="settings-sliders 1" clip-path="url(#clip0_12_1742)">
<path id="Vector" d="M0.916667 4.35407H3.42467C3.62142 5.07799 4.05091 5.71705 4.64688 6.17267C5.24286 6.62829 5.97219 6.87514 6.72237 6.87514C7.47256 6.87514 8.20189 6.62829 8.79787 6.17267C9.39384 5.71705 9.82333 5.07799 10.0201 4.35407H21.0833C21.3264 4.35407 21.5596 4.25749 21.7315 4.08558C21.9034 3.91367 22 3.68052 22 3.4374C22 3.19429 21.9034 2.96113 21.7315 2.78922C21.5596 2.61731 21.3264 2.52074 21.0833 2.52074H10.0201C9.82333 1.79681 9.39384 1.15775 8.79787 0.702132C8.20189 0.246515 7.47256 -0.000335693 6.72237 -0.000335693C5.97219 -0.000335693 5.24286 0.246515 4.64688 0.702132C4.05091 1.15775 3.62142 1.79681 3.42467 2.52074H0.916667C0.673552 2.52074 0.440394 2.61731 0.268485 2.78922C0.0965771 2.96113 0 3.19429 0 3.4374C0 3.68052 0.0965771 3.91367 0.268485 4.08558C0.440394 4.25749 0.673552 4.35407 0.916667 4.35407ZM6.72192 1.83324C7.03919 1.83324 7.34934 1.92732 7.61314 2.10359C7.87695 2.27985 8.08256 2.53039 8.20397 2.82351C8.32539 3.11664 8.35716 3.43918 8.29526 3.75036C8.23336 4.06154 8.08058 4.34737 7.85623 4.57172C7.63189 4.79607 7.34605 4.94885 7.03487 5.01075C6.7237 5.07264 6.40115 5.04087 6.10803 4.91946C5.81491 4.79804 5.56437 4.59243 5.3881 4.32863C5.21183 4.06483 5.11775 3.75468 5.11775 3.4374C5.11824 3.0121 5.2874 2.60436 5.58814 2.30362C5.88887 2.00289 6.29661 1.83372 6.72192 1.83324Z" fill="white"/>
<path id="Vector_2" d="M21.0833 10.0833H18.5753C18.3789 9.35925 17.9496 8.71995 17.3537 8.26414C16.7577 7.80834 16.0283 7.56137 15.2781 7.56137C14.5278 7.56137 13.7984 7.80834 13.2025 8.26414C12.6066 8.71995 12.1773 9.35925 11.9808 10.0833H0.916667C0.673552 10.0833 0.440394 10.1799 0.268485 10.3518C0.0965771 10.5237 0 10.7569 0 11C0 11.2431 0.0965771 11.4763 0.268485 11.6482C0.440394 11.8201 0.673552 11.9167 0.916667 11.9167H11.9808C12.1773 12.6408 12.6066 13.2801 13.2025 13.7359C13.7984 14.1917 14.5278 14.4386 15.2781 14.4386C16.0283 14.4386 16.7577 14.1917 17.3537 13.7359C17.9496 13.2801 18.3789 12.6408 18.5753 11.9167H21.0833C21.3264 11.9167 21.5596 11.8201 21.7315 11.6482C21.9034 11.4763 22 11.2431 22 11C22 10.7569 21.9034 10.5237 21.7315 10.3518C21.5596 10.1799 21.3264 10.0833 21.0833 10.0833ZM15.2781 12.6042C14.9608 12.6042 14.6507 12.5101 14.3869 12.3338C14.1231 12.1575 13.9174 11.907 13.796 11.6139C13.6746 11.3208 13.6428 10.9982 13.7047 10.687C13.7666 10.3759 13.9194 10.09 14.1438 9.86568C14.3681 9.64134 14.6539 9.48856 14.9651 9.42666C15.2763 9.36476 15.5988 9.39653 15.892 9.51795C16.1851 9.63936 16.4356 9.84497 16.6119 10.1088C16.7882 10.3726 16.8822 10.6827 16.8822 11C16.8818 11.4253 16.7126 11.833 16.4119 12.1338C16.1111 12.4345 15.7034 12.6037 15.2781 12.6042Z" fill="white"/>
<path id="Vector_3" d="M21.0833 17.6458H10.0201C9.82333 16.9219 9.39384 16.2828 8.79787 15.8272C8.20189 15.3716 7.47256 15.1248 6.72237 15.1248C5.97219 15.1248 5.24286 15.3716 4.64688 15.8272C4.05091 16.2828 3.62142 16.9219 3.42467 17.6458H0.916667C0.673552 17.6458 0.440394 17.7424 0.268485 17.9143C0.0965771 18.0862 0 18.3194 0 18.5625C0 18.8056 0.0965771 19.0388 0.268485 19.2107C0.440394 19.3826 0.673552 19.4792 0.916667 19.4792H3.42467C3.62142 20.2031 4.05091 20.8421 4.64688 21.2978C5.24286 21.7534 5.97219 22.0002 6.72237 22.0002C7.47256 22.0002 8.20189 21.7534 8.79787 21.2978C9.39384 20.8421 9.82333 20.2031 10.0201 19.4792H21.0833C21.3264 19.4792 21.5596 19.3826 21.7315 19.2107C21.9034 19.0388 22 18.8056 22 18.5625C22 18.3194 21.9034 18.0862 21.7315 17.9143C21.5596 17.7424 21.3264 17.6458 21.0833 17.6458ZM6.72192 20.1667C6.40464 20.1667 6.09449 20.0726 5.83069 19.8963C5.56689 19.72 5.36128 19.4695 5.23986 19.1764C5.11844 18.8833 5.08668 18.5607 5.14857 18.2495C5.21047 17.9384 5.36325 17.6525 5.5876 17.4282C5.81195 17.2038 6.09778 17.051 6.40896 16.9892C6.72014 16.9273 7.04268 16.959 7.3358 17.0804C7.62893 17.2019 7.87946 17.4075 8.05573 17.6713C8.232 17.9351 8.32608 18.2452 8.32608 18.5625C8.32536 18.9877 8.15611 19.3953 7.85543 19.696C7.55475 19.9967 7.14715 20.1659 6.72192 20.1667Z" fill="white"/>
</g>
<defs>
<clipPath id="clip0_12_1742">
<rect width="22" height="22" fill="white"/>
</clipPath>
</defs>
</svg>
