<svg width="304" height="32" viewBox="0 0 304 32" fill="none" xmlns="http://www.w3.org/2000/svg">
<path fill-rule="evenodd" clip-rule="evenodd" d="M17 0C14.2386 0 12 2.23858 12 5V10.1702L0 15.5L12 21.3143V27C12 29.7614 14.2386 32 17 32H299C301.761 32 304 29.7614 304 27V5C304 2.23858 301.761 0 299 0H17Z" fill="black" fill-opacity="0.6"/>
<path d="M32.217 19.024V13.928H29.669V13.044H32.217V10.314H33.296V19.024H32.217ZM30.501 16.268L29.942 17.087C28.655 16.58 27.654 15.579 27.16 14.318C26.666 15.709 25.626 16.814 24.261 17.36L23.702 16.515C25.444 15.878 26.614 14.227 26.614 12.446V11.003H27.68V12.485C27.68 14.11 28.824 15.644 30.501 16.268ZM26.861 20.831H33.569V21.702H25.795V18.062H26.861V20.831ZM41.108 15.579L41.212 16.437C39.873 16.71 38.768 16.762 36.896 16.762H36.155V11.159H40.653V12.017H37.182V13.486H40.523V14.305H37.182V15.891C38.846 15.891 39.886 15.826 41.108 15.579ZM37.65 18.842V17.984H45.489V21.962H44.423V18.842H37.65ZM44.462 10.314H45.489V17.373H44.462V14.214H42.902V17.295H41.888V10.522H42.902V13.343H44.462V10.314ZM54.523 11.731V12.589H47.646V11.731H50.545V10.301H51.611V11.731H54.523ZM49.31 15.397C49.31 16.216 50.025 16.736 51.078 16.736C52.131 16.736 52.859 16.216 52.859 15.397C52.859 14.591 52.131 14.071 51.078 14.071C50.025 14.071 49.31 14.591 49.31 15.397ZM53.873 15.397C53.873 16.71 52.729 17.568 51.078 17.568C49.427 17.568 48.296 16.71 48.296 15.397C48.296 14.097 49.427 13.239 51.078 13.239C52.729 13.239 53.873 14.097 53.873 15.397ZM50.467 18.361V20.831H57.175V21.702H49.401V18.361H50.467ZM56.655 14.149H58.371V15.046H56.655V19.05H55.589V10.301H56.655V14.149ZM69.8702 11.731V12.589H62.7852V11.731H65.8012V10.301H66.8672V11.731H69.8702ZM64.5402 15.41C64.5402 16.216 65.2682 16.736 66.3342 16.736C67.3872 16.736 68.1152 16.216 68.1152 15.41C68.1152 14.591 67.3872 14.071 66.3342 14.071C65.2682 14.071 64.5402 14.591 64.5402 15.41ZM66.8672 17.542V18.764C67.9722 18.712 69.1032 18.634 70.1692 18.491L70.2472 19.284C67.6472 19.713 64.8392 19.752 62.6942 19.752L62.5382 18.855C63.5262 18.855 64.6442 18.842 65.8012 18.803V17.555C64.4232 17.386 63.5262 16.58 63.5262 15.41C63.5262 14.097 64.6702 13.252 66.3342 13.252C67.9982 13.252 69.1292 14.097 69.1292 15.41C69.1292 16.567 68.2452 17.373 66.8672 17.542ZM70.9102 10.301H71.9762V21.962H70.9102V10.301ZM78.3452 11.315V13.408C78.3452 15.462 79.6712 17.581 81.3092 18.4L80.6462 19.245C79.4112 18.582 78.3582 17.217 77.8252 15.618C77.3182 17.321 76.2392 18.777 74.9262 19.479L74.2892 18.621C75.9662 17.763 77.2922 15.527 77.2922 13.408V11.315H78.3452ZM85.3262 15.033V15.917H83.4022V21.962H82.3362V10.314H83.4022V15.033H85.3262ZM89.0301 18.413C89.9401 18.413 90.5381 17.23 90.5381 15.319C90.5381 13.447 89.9401 12.264 89.0301 12.264C88.0941 12.264 87.5091 13.447 87.5091 15.319C87.5091 17.23 88.0941 18.413 89.0301 18.413ZM92.9691 14.838V10.561H93.9831V21.39H92.9691V15.709H91.5001C91.4091 17.997 90.4601 19.401 89.0301 19.401C87.5091 19.401 86.5341 17.841 86.5341 15.319C86.5341 12.836 87.5091 11.276 89.0301 11.276C90.4341 11.276 91.3701 12.641 91.5001 14.838H92.9691ZM95.2831 10.301H96.2971V21.962H95.2831V10.301ZM102.232 16.047L101.777 15.202C103.454 14.812 104.585 13.746 104.585 12.498V12.472H102.011V11.627H104.572V10.327H105.638V11.627H108.212V12.472H105.638V12.498C105.638 13.668 106.769 14.669 108.42 15.046L107.991 15.878C106.652 15.553 105.638 14.851 105.131 13.902C104.637 14.929 103.597 15.709 102.232 16.047ZM108.927 16.476L109.005 17.269C107.913 17.451 106.769 17.568 105.664 17.633V21.624H104.598V17.698C103.454 17.737 102.349 17.75 101.374 17.75L101.231 16.853C103.454 16.853 106.379 16.84 108.927 16.476ZM109.759 10.314H110.825V21.975H109.759V10.314ZM121.757 20.948V19.44H116.414V20.948H121.757ZM121.757 18.608V17.126H122.823V21.806H115.361V17.126H116.414V18.608H121.757ZM116.401 15.358C117.558 15.358 118.39 14.604 118.39 13.538C118.39 12.472 117.558 11.731 116.401 11.731C115.244 11.731 114.412 12.472 114.412 13.538C114.412 14.604 115.244 15.358 116.401 15.358ZM121.744 10.314H122.823V16.567H121.744V13.954H119.378C119.17 15.332 118 16.242 116.401 16.242C114.659 16.242 113.398 15.15 113.398 13.538C113.398 11.939 114.659 10.847 116.401 10.847C117.974 10.847 119.144 11.731 119.365 13.083H121.744V10.314ZM132.091 11.731V12.589H125.214V11.731H128.113V10.301H129.179V11.731H132.091ZM126.878 15.397C126.878 16.216 127.593 16.736 128.646 16.736C129.699 16.736 130.427 16.216 130.427 15.397C130.427 14.591 129.699 14.071 128.646 14.071C127.593 14.071 126.878 14.591 126.878 15.397ZM131.441 15.397C131.441 16.71 130.297 17.568 128.646 17.568C126.995 17.568 125.864 16.71 125.864 15.397C125.864 14.097 126.995 13.239 128.646 13.239C130.297 13.239 131.441 14.097 131.441 15.397ZM128.035 18.361V20.831H134.743V21.702H126.969V18.361H128.035ZM134.223 14.149H135.939V15.046H134.223V19.05H133.157V10.301H134.223V14.149ZM140.939 14.604L140.588 13.798C142.603 13.629 144.488 12.719 144.618 11.536H141.004V10.691H149.636V11.536H146.022C146.152 12.719 148.024 13.629 150.026 13.798L149.688 14.604C147.738 14.409 145.957 13.629 145.32 12.381C144.696 13.629 142.902 14.409 140.939 14.604ZM142.382 19.882V21.013H149.584V21.832H141.342V19.089H148.18V18.023H141.303V17.217H149.233V19.882H142.382ZM145.853 15.41H150.585V16.268H140.029V15.41H144.787V13.993H145.853V15.41ZM160.542 20.948V19.44H155.199V20.948H160.542ZM160.542 18.608V17.126H161.608V21.806H154.146V17.126H155.199V18.608H160.542ZM155.186 15.358C156.343 15.358 157.175 14.604 157.175 13.538C157.175 12.472 156.343 11.731 155.186 11.731C154.029 11.731 153.197 12.472 153.197 13.538C153.197 14.604 154.029 15.358 155.186 15.358ZM160.529 10.314H161.608V16.567H160.529V13.954H158.163C157.955 15.332 156.785 16.242 155.186 16.242C153.444 16.242 152.183 15.15 152.183 13.538C152.183 11.939 153.444 10.847 155.186 10.847C156.759 10.847 157.929 11.731 158.15 13.083H160.529V10.314ZM171.292 14.305V17.126H170.278V10.535H171.292V13.434H172.774V10.314H173.801V17.503H172.774V14.305H171.292ZM169.797 15.774L169.225 16.593C168.133 16.151 167.34 15.319 166.924 14.331C166.508 15.423 165.676 16.411 164.545 16.918L163.973 16.086C165.494 15.41 166.404 13.902 166.404 12.602V11.029H167.431V12.602C167.431 13.889 168.302 15.202 169.797 15.774ZM169.953 21.13C171.721 21.13 172.8 20.662 172.8 19.856C172.8 19.05 171.721 18.595 169.953 18.595C168.211 18.595 167.119 19.05 167.119 19.856C167.119 20.662 168.211 21.13 169.953 21.13ZM169.953 17.763C172.358 17.763 173.853 18.53 173.853 19.856C173.853 21.182 172.358 21.949 169.953 21.949C167.561 21.949 166.066 21.182 166.066 19.856C166.066 18.53 167.561 17.763 169.953 17.763ZM179.701 11.159C181.521 11.159 182.821 12.264 182.821 13.902C182.821 15.527 181.521 16.645 179.701 16.645C177.894 16.645 176.581 15.527 176.581 13.902C176.581 12.264 177.894 11.159 179.701 11.159ZM179.701 12.069C178.505 12.069 177.621 12.81 177.621 13.902C177.621 14.981 178.505 15.735 179.701 15.735C180.91 15.735 181.781 14.981 181.781 13.902C181.781 12.81 180.91 12.069 179.701 12.069ZM184.355 10.301H185.421V21.988H184.355V10.301ZM176.126 19.427L175.996 18.53C178.115 18.53 181.04 18.517 183.588 18.127L183.679 18.92C181.053 19.401 178.232 19.427 176.126 19.427ZM197.012 13.33H199.313V10.314H200.392V17.256H199.313V14.201H197.012V13.33ZM197.662 15.982L197.129 16.814C195.829 16.346 194.828 15.384 194.321 14.188C193.827 15.54 192.748 16.632 191.383 17.152L190.824 16.307C192.566 15.67 193.762 14.097 193.762 12.42V12.017H191.162V11.159H197.389V12.017H194.828V12.42C194.828 13.915 195.972 15.384 197.662 15.982ZM196.544 21.13C198.299 21.13 199.365 20.636 199.365 19.791C199.365 18.946 198.299 18.439 196.544 18.439C194.789 18.439 193.723 18.946 193.723 19.791C193.723 20.636 194.789 21.13 196.544 21.13ZM196.544 17.62C198.936 17.62 200.431 18.413 200.431 19.791C200.431 21.169 198.936 21.962 196.544 21.962C194.152 21.962 192.657 21.169 192.657 19.791C192.657 18.413 194.152 17.62 196.544 17.62ZM205.045 14.084V16.229H210.999V14.084H205.045ZM208.555 19.596H213.313V20.467H202.744V19.596H207.476V17.087H203.992V11.133H205.045V13.213H210.999V11.133H212.039V17.087H208.555V19.596ZM222.867 12.342V11.393H216.029V10.639H223.92V13.07H217.108V14.071H224.128V14.838H216.055V12.342H222.867ZM217.043 19.96V21.039H224.323V21.806H215.99V19.219H222.906V18.244H215.964V17.477H223.959V19.96H217.043ZM214.703 15.722H225.272V16.528H214.703V15.722ZM230.284 11.042H235.549C235.549 13.993 233.482 16.086 230.141 17.035L229.699 16.203C232.468 15.41 234.197 13.889 234.418 11.913H230.284V11.042ZM232.689 18.296V20.935H238.123V18.296H232.689ZM231.636 21.793V17.451H239.176V21.793H231.636ZM238.097 10.301H239.176V16.957H238.097V14.175H235.562V13.304H238.097V10.301ZM247.365 15.826L246.793 16.632C245.714 16.19 244.908 15.332 244.492 14.331C244.076 15.436 243.244 16.424 242.113 16.931L241.541 16.112C243.062 15.423 243.972 13.889 243.972 12.563V10.99H244.999V12.563C244.999 13.876 245.857 15.228 247.365 15.826ZM243.53 18.855V17.997H251.369V21.962H250.303V18.855H243.53ZM250.342 10.314H251.369V17.36H250.342V14.214H248.86V17.282H247.846V10.509H248.86V13.343H250.342V10.314ZM260.403 11.497V12.355H253.526V11.497H256.425V10.184H257.491V11.497H260.403ZM255.19 14.942C255.19 15.709 255.892 16.177 256.958 16.177C258.024 16.177 258.739 15.709 258.739 14.942C258.739 14.188 258.024 13.707 256.958 13.707C255.892 13.707 255.19 14.188 255.19 14.942ZM259.753 14.942C259.753 16.19 258.622 16.983 256.958 16.983C255.294 16.983 254.176 16.19 254.176 14.942C254.176 13.707 255.294 12.914 256.958 12.914C258.622 12.914 259.753 13.707 259.753 14.942ZM261.482 20.948V19.661H256.256V20.948H261.482ZM261.482 18.829V17.594H262.535V21.806H255.203V17.594H256.256V18.829H261.482ZM264.264 13.265V14.162H262.535V17.074H261.469V10.301H262.535V13.265H264.264ZM267.24 11.432V18.036C268.995 18.036 270.802 17.88 272.739 17.49L272.856 18.4C270.828 18.816 268.995 18.946 267.136 18.946H266.174V11.432H267.24ZM273.935 10.301H275.001V21.949H273.935V10.301ZM278.965 12.303V18.166C281.032 18.166 282.527 18.075 284.217 17.776L284.334 18.66C282.553 18.998 281.019 19.076 278.822 19.076H277.899V11.419H283.32V12.303H278.965ZM288.299 14.903V15.787H286.375V21.988H285.309V10.301H286.375V14.903H288.299ZM290.482 21.169C290.014 21.169 289.624 20.805 289.624 20.272C289.624 19.726 290.014 19.349 290.482 19.349C290.95 19.349 291.34 19.726 291.34 20.272C291.34 20.805 290.95 21.169 290.482 21.169Z" fill="white"/>
</svg>
