<svg version="1.0" xmlns="http://www.w3.org/2000/svg"
 width="512.000000pt" height="512.000000pt" viewBox="0 0 512.000000 512.000000"
 preserveAspectRatio="xMidYMid meet">

<g transform="translate(0.000000,512.000000) scale(0.100000,-0.100000)"
fill="#2F5DFF" stroke="none">
<path d="M2379 4595 l-224 -235 -1077 0 -1078 0 0 -2035 0 -2035 2560 0 2560
0 0 2035 0 2035 -1033 0 -1033 0 -80 83 c-44 45 -145 150 -225 234 l-147 152
-223 -234z m925 -930 l692 -720 412 -3 412 -2 0 -1175 0 -1175 -820 0 -820 0
0 498 c0 464 -1 504 -20 576 -11 43 -34 105 -52 139 -43 82 -173 212 -255 255
-179 94 -408 94 -586 0 -94 -50 -215 -175 -260 -268 -67 -137 -67 -139 -67
-697 l0 -503 -820 0 -820 0 0 1175 0 1175 454 0 453 0 694 724 c382 398 698
723 703 722 5 -1 320 -326 700 -721z m-1505 328 c-35 -38 -212 -222 -393 -410
l-329 -343 -388 0 -389 0 0 410 0 410 782 0 781 0 -64 -67z m3021 -343 l0
-410 -343 0 -344 0 -125 128 c-139 142 -600 623 -637 665 l-24 27 736 0 737 0
0 -410z m-2124 -1850 c62 -30 123 -92 155 -155 l24 -50 3 -502 3 -503 -321 0
-320 0 0 483 c0 380 3 494 14 529 28 96 114 183 210 214 61 20 172 12 232 -16z"/>
<path d="M2465 3806 c-70 -18 -130 -51 -186 -103 -211 -197 -155 -540 109
-670 52 -26 66 -28 172 -28 107 0 119 2 175 29 219 108 301 387 174 588 -97
152 -275 226 -444 184z m140 -300 c38 -16 65 -60 65 -107 0 -22 -10 -41 -34
-65 -28 -28 -42 -34 -76 -34 -34 0 -48 6 -76 34 -24 24 -34 43 -34 65 0 46 26
90 63 106 41 18 50 18 92 1z"/>
<path d="M2410 2520 l0 -150 150 0 150 0 0 150 0 150 -150 0 -150 0 0 -150z"/>
<path d="M677 2413 c-4 -3 -7 -71 -7 -150 l0 -143 150 0 150 0 0 150 0 150
-143 0 c-79 0 -147 -3 -150 -7z"/>
<path d="M1277 2414 c-4 -4 -7 -72 -7 -151 l0 -143 155 0 156 0 -3 148 -3 147
-146 3 c-80 1 -148 -1 -152 -4z"/>
<path d="M3547 2414 c-4 -4 -7 -72 -7 -151 l0 -143 155 0 156 0 -3 148 -3 147
-146 3 c-80 1 -148 -1 -152 -4z"/>
<path d="M4150 2270 l0 -150 150 0 151 0 -3 148 -3 147 -147 3 -148 3 0 -151z"/>
<path d="M670 1290 l0 -270 150 0 150 0 0 270 0 270 -150 0 -150 0 0 -270z"/>
<path d="M1277 1554 c-4 -4 -7 -126 -7 -271 l0 -263 155 0 155 0 -2 268 -3
267 -146 3 c-80 1 -148 -1 -152 -4z"/>
<path d="M3547 1554 c-4 -4 -7 -126 -7 -271 l0 -263 155 0 155 0 -2 268 -3
267 -146 3 c-80 1 -148 -1 -152 -4z"/>
<path d="M4150 1290 l0 -270 150 0 150 0 0 270 0 270 -150 0 -150 0 0 -270z"/>
</g>
</svg>
