<svg
        xmlns="http://www.w3.org/2000/svg"
        width="14"
        height="14"
        viewBox="0 0 14 14"
        fill="none"
>
    <path
            d="M5.76189 10.5712C6.4451 11.2548 7.55312 11.2552 8.23677 10.572C8.23705 10.5717 8.23729 10.5715 8.23757 10.5712L10.1106 8.6981C10.3267 8.45914 10.3081 8.09025 10.0692 7.87418C9.84669 7.67301 9.5079 7.67337 9.28582 7.875L7.57899 9.58243L7.58307 0.583352C7.58304 0.26116 7.32188 0 6.99971 0C6.67755 0 6.41639 0.26116 6.41639 0.583324L6.41114 9.57132L4.71364 7.875C4.4857 7.64723 4.11629 7.64736 3.88851 7.8753C3.66074 8.10324 3.66088 8.47265 3.88882 8.70043L5.76189 10.5712Z"
            fill="white"
    />
    <path
            d="M13.4167 9.08411C13.0945 9.08411 12.8334 9.34527 12.8334 9.66743V12.0008C12.8334 12.3229 12.5722 12.5841 12.25 12.5841H1.75C1.42784 12.5841 1.16668 12.3229 1.16668 12.0008V9.66746C1.16668 9.34529 0.905516 9.08413 0.583352 9.08413C0.26116 9.08411 0 9.34529 0 9.66746V12.0008C0 12.9673 0.783508 13.7508 1.75 13.7508H12.25C13.2165 13.7508 14 12.9673 14 12.0008V9.66746C14 9.34529 13.7388 9.08411 13.4167 9.08411Z"
            fill="white"
    />
</svg>